<svg id="Layer_1" data-name="Layer 1" xmlns="http://www.w3.org/2000/svg" xmlns:xlink="http://www.w3.org/1999/xlink" viewBox="0 0 324.04 581.44">
  <defs>
    <clipPath id="clip-path" transform="translate(-31.2)">
      <rect y="65" width="371.71" height="536.64" fill="none"/>
    </clipPath>
  </defs>
  <title>boba</title>
  <g id="layer1">
    <g clip-path="url(#clip-path)">
      <path id="path5103" d="M31.46,204c1.72-.19,11.54,77.17,21.9,172.68S70.75,549.81,69,550s-11.54-77.17-21.9-172.68S29.74,204.14,31.46,204Z" transform="translate(-31.2)"/>
    </g>
    <ellipse id="path6571" cx="154.69" cy="552.7" rx="119" ry="28.74"/>
    <path id="path3375" d="M186.26,163.86c-85.6,0-155,15.68-155,35h0c0,19.35,69.4,35,155,35s151.63-15.84,151.63-35.19-66-34.88-151.62-34.88Zm0,15.92c63.32,0,114.65,8.08,114.65,18s-51.32,18-114.64,18h0c-63.32,0-114.66-8.08-114.66-18h0c0-10,51.33-18,114.65-18Z" transform="translate(-31.2)"/>
  </g>
  <path id="path5103-2" data-name="path5103" d="M338,201.76c1.72.19-5.54,80.07-16.21,178.3s-20.73,177.81-22.45,177.63,5.54-80.07,16.21-178.3S336.32,201.57,338,201.76Z" transform="translate(-31.2)"/>
  <path d="M205.47,491.06l-30.89-8.89L174,482l.17-.58q35.49-122.21,72.29-244l36.9-121.77L302,54.82l9.31-30.42,2.33-7.6,1.16-3.8.58-1.9.15-.48.11-.35a5.57,5.57,0,0,1,.28-.69,6,6,0,0,1,6.14-3.33,5.53,5.53,0,0,1,.73.14l.43.12,1.9.59,3.8,1.18,7.6,2.35,7.6,2.35,3.8,1.18,1.9.59.42.14a5.51,5.51,0,0,1,.68.29,5.88,5.88,0,0,1,1.23.83,6,6,0,0,1,2,5.33,5.52,5.52,0,0,1-.15.72l-.1.35-.15.48-.59,1.91-1.18,3.82-2.36,7.64-9.46,30.56-19,61.09q-19.14,61-38.38,121.85C257,330.81,231.19,411.42,205.47,491.06Zm0,0c24.19-82.51,48.25-164,72.48-245.14Q296,185,314.43,124.56L332.85,64l9.25-30.24,2.31-7.56,1.16-3.78.58-1.89.14-.47s.08-.27,0-.12,0,.15,0,.23a2,2,0,0,0,.1,1,2,2,0,0,0,.54.79,2,2,0,0,0,.41.28l.22.1-.05,0-1.9-.58-3.8-1.16-7.6-2.33-7.6-2.33-3.8-1.16-1.9-.58-.05,0,.24,0a2.08,2.08,0,0,0,.5,0,2,2,0,0,0,.91-.36,2.06,2.06,0,0,0,.64-.76c0-.08.07-.15.09-.23s0,.09,0,.12l-.15.47-.59,1.9-1.18,3.8-2.35,7.6-9.4,30.39-18.8,60.78-38,121.44q-38.19,121.37-77.44,242.42l-.39-.73C185,484.34,195.13,487.74,205.47,491.06Z" transform="translate(-31.2)"/>
  <ellipse cx="335.43" cy="14.49" rx="9.76" ry="16.27" transform="translate(191.7 330.81) rotate(-72.89)" fill="#fff" stroke="#000" stroke-miterlimit="10" stroke-width="8"/>
  <circle cx="93.19" cy="468.24" r="9.5"/>
  <circle cx="193.19" cy="508.24" r="9.5"/>
  <circle cx="212.19" cy="468.24" r="9.5"/>
  <circle cx="52.19" cy="450.24" r="9.5"/>
  <circle cx="62.19" cy="508.24" r="9.5"/>
  <circle cx="131.19" cy="440.24" r="9.5"/>
  <circle cx="255.19" cy="459.24" r="9.5"/>
  <circle cx="236.19" cy="498.24" r="9.5"/>
  <circle cx="112.19" cy="498.24" r="9.5"/>
</svg>
