<?xml version="1.0" encoding="UTF-8" standalone="no"?>
<svg id="svg2" xmlns:rdf="http://www.w3.org/1999/02/22-rdf-syntax-ns#" xmlns="http://www.w3.org/2000/svg" xmlns:osb="http://www.openswatchbook.org/uri/2009/osb" viewBox="0 0 192.29883 192.29683" height="54.27mm" width="54.271mm" version="1.1" xmlns:cc="http://creativecommons.org/ns#" xmlns:dc="http://purl.org/dc/elements/1.1/">
	<g id="layer1" transform="matrix(.98536 0 0 .98536 -34.905 -810.33)">
		<path id="path4285" d="m133 823.39a96.563 96.563 0 0 0 -96.564 96.562 96.563 96.563 0 0 0 96.564 96.562 96.563 96.563 0 0 0 96.562 -96.562 96.563 96.563 0 0 0 -96.562 -96.562zm0 1.3875a94.871 94.871 0 0 1 94.87 94.872 94.871 94.871 0 0 1 -94.87 94.87 94.871 94.871 0 0 1 -94.872 -94.87 94.871 94.871 0 0 1 94.872 -94.872z" stroke="#000" stroke-width="2.0297"/>
		<path id="path4293" d="m133 838.31a81.646 81.646 0 0 0 -81.645 81.647 81.646 81.646 0 0 0 81.645 81.645 81.646 81.646 0 0 0 81.647 -81.645 81.646 81.646 0 0 0 -81.647 -81.647zm0.1447 8.5352 11.498 20.545-11.786 20.042-11.498-20.543 11.786-20.044zm-18.577 47.13h36.866c4.8371 0 8.7294 3.8943 8.7294 8.7313v36.864c0 4.8371-3.8923 8.7314-8.7294 8.7314h-36.866c-4.8371 0-8.7314-3.8943-8.7314-8.7314v-36.864c0-4.837 3.8943-8.7313 8.7314-8.7313zm71.972 14.868 19.177 12.23-20.573 11.401-19.177-12.23 20.573-11.401zm-105.2 0.5352 19.952 11.766-19.839 10.785-19.95-11.764 19.837-10.787zm51.986 43.241 11.189 20.196-11.847 21.076-11.187-20.196 11.845-21.076z" fill-rule="evenodd"/>
	</g>
</svg>
