<?xml version="1.0" encoding="UTF-8" standalone="no"?>
<svg id="svg4736" xmlns:rdf="http://www.w3.org/1999/02/22-rdf-syntax-ns#" xmlns="http://www.w3.org/2000/svg" height="68.22mm" width="112.89mm" version="1.1" xmlns:cc="http://creativecommons.org/ns#" xmlns:dc="http://purl.org/dc/elements/1.1/" viewBox="0 0 399.99999 241.72419">
	<g id="layer1" transform="translate(-25.828 -793.32)" stroke="#000">
		<path id="path4760" d="m199.08 1.5957a205.04 205.04 0 0 0 -197.12 150.77l197.73 54.26 198.36-51.87a205.04 205.04 0 0 0 -197.12 -153.16 205.04 205.04 0 0 0 -1.85 -0.0043zm-1.13 6.0391c2.75-0.0443 5.49 30.539 6.09 68.265 0.61 37.73-1.14 68.38-3.9 68.43-2.76 0.04-5.49-30.54-6.1-68.269-0.6-37.727 1.15-68.382 3.91-68.426zm-48.57 4.5562c2.66-0.724 12.99 28.694 23.05 65.666 10.06 36.973 16.06 67.573 13.4 68.293-2.67 0.73-12.99-28.69-23.05-65.666-10.06-36.972-16.07-67.568-13.4-68.293zm98.41 0.913c2.68 0.677-2.91 31.847-12.46 69.574-9.56 37.722-19.49 67.792-22.16 67.112-2.68-0.67 2.91-31.84 12.46-69.569 9.56-37.727 19.49-67.795 22.16-67.117zm39.83 12.728c0.1-0.018 0.19-0.008 0.27 0.029 2.48 1.206-9.38 30.761-26.49 65.973-17.1 35.216-32.99 62.816-35.48 61.606-2.48-1.21 9.39-30.76 26.49-65.973 16.57-34.112 32-61.079 35.21-61.635zm-185.36 5.441c3.23 0.237 20.76 25.244 40.01 57.163 19.86 32.944 34.07 60.844 31.71 62.274-2.37 1.42-20.41-24.16-40.28-57.11-19.86-32.949-34.069-60.847-31.71-62.272 0.08-0.044 0.17-0.062 0.27-0.055zm227.29 22.741c0.11 0.008 0.19 0.041 0.26 0.097 2.09 1.798-17.23 27.751-43.14 57.929-25.9 30.18-48.63 53.22-50.72 51.42-2.1-1.79 17.23-27.75 43.13-57.93 25.1-29.237 47.21-51.771 50.47-51.516zm-264.67 6.361c3.17-0.552 25.776 19.281 51.603 45.345 26.66 26.91 46.7 50.33 44.74 52.27s-25.19-18.32-51.85-45.23c-26.656-26.908-46.7-50.323-44.739-52.266 0.061-0.061 0.144-0.101 0.246-0.119zm290.77 29.971c0.29 0.004 0.49 0.075 0.59 0.216 1.58 2.262-22.25 21.648-53.18 43.278-30.94 21.63-57.33 37.35-58.91 35.09s22.24-21.65 53.18-43.28c29-20.28 54.01-35.362 58.32-35.304zm-317.78 0.896c4.328-0.167 29.874 14.298 59.584 33.878 31.689 20.87 56.179 39.68 54.659 41.99-1.52 2.3-28.47-12.77-60.161-33.64-31.69-20.88-56.178-39.692-54.66-41.997 0.095-0.144 0.29-0.22 0.578-0.231zm-18.056 38.928c6.83-0.02 33.678 7.55 65.148 18.55 35.971 12.58 64.421 24.9 63.501 27.5-0.91 2.61-30.84-5.48-66.802-18.06-35.966-12.58-64.417-24.9-63.506-27.5 0.114-0.33 0.683-0.49 1.659-0.49zm357.58 0.9c0.96 0.01 1.51 0.17 1.63 0.5 0.91 2.6-26.93 14.72-62.14 27.05-35.21 12.32-64.53 20.21-65.44 17.6-0.91-2.6 26.92-14.72 62.14-27.04 30.81-10.79 57.1-18.17 63.81-18.11zm-177.12 20.5a53.31 53.31 0 0 1 51.72 39.21l-51.41 14.1-51.57-13.5a53.31 53.31 0 0 1 51.26 -39.81z" transform="translate(25.828 793.32)" stroke-width="3.1895"/>
		<path id="path4833" d="m517.73 903.54a33.717 33.717 0 0 1 -24.99 32.57 33.717 33.717 0 0 1 -37.92 -15.71l29.2-16.859z" transform="rotate(15.426)" stroke-width="3.1895"/>
	</g>
</svg>
