<?xml version="1.0" encoding="UTF-8" standalone="no"?>
<svg id="svg5044" xmlns:rdf="http://www.w3.org/1999/02/22-rdf-syntax-ns#" xmlns="http://www.w3.org/2000/svg" viewBox="0 0 180 285.40315" height="80.547mm" width="50.8mm" version="1.1" xmlns:cc="http://creativecommons.org/ns#" xmlns:dc="http://purl.org/dc/elements/1.1/">
	<defs id="defs5046">
		<clipPath id="clipPath3418" clipPathUnits="userSpaceOnUse">
			<rect id="rect3420" height="854.59" width="591.95" y="39.556" x="55.14" fill="none"/>
		</clipPath>
		<clipPath id="clipPath3422" clipPathUnits="userSpaceOnUse">
			<rect id="rect3424" height="854.59" width="591.95" y="62.413" x="56.569" fill="none"/>
		</clipPath>
		<clipPath id="clipPath3426" clipPathUnits="userSpaceOnUse">
			<rect id="rect3428" height="854.59" width="591.95" y="62.413" x="56.569" fill="none"/>
		</clipPath>
		<clipPath id="clipPath3434" clipPathUnits="userSpaceOnUse">
			<rect id="rect3436" height="854.59" width="591.95" y="62.413" x="56.569" fill="none"/>
		</clipPath>
		<clipPath id="clipPath3438" clipPathUnits="userSpaceOnUse">
			<rect id="rect3440" height="854.59" width="591.95" y="62.413" x="56.569" fill="none"/>
		</clipPath>
	</defs>
	<g id="layer1" transform="translate(-46.727 -741)">
		<path id="path5078" d="m600 270.5c2.76 0.005 4.7888 124.01 4.5287 276.79-0.26016 152.79-2.7113 276.78-5.4713 276.78-2.76-0.005-4.7888-124.01-4.5287-276.79 0.26016-152.79 2.7113-276.78 5.4713-276.78z" fill-rule="evenodd" clip-path="url(#clipPath3438)" transform="matrix(.35766 0 0 .35766 10.505 707.72)"/>
		<path id="path5103" d="m107.04 270.93c2.76 0.007 4.68 124.17 4.2857 277.16-0.39429 152.98-2.9543 277.14-5.7143 277.13-2.76-0.007-4.68-124.17-4.2857-277.16 0.39429-152.98 2.9543-277.14 5.7143-277.13z" fill-rule="evenodd" clip-path="url(#clipPath3434)" transform="matrix(.35766 0 0 .35766 10.505 707.72)"/>
		<text id="text5137" style="word-spacing:0px;letter-spacing:0px" clip-path="url(#clipPath3422)" xml:space="preserve" transform="matrix(.35766 0 0 .35766 10.505 707.72)" line-height="125%" font-size="40px" y="448.29099" x="-244.45692" font-family="sans-serif" fill="#000000"><tspan id="tspan5141" y="448.29099" x="-244.45692"/></text>
		<g id="g3378" transform="matrix(.44742 0 0 .42294 -22.475 680.67)" clip-path="url(#clipPath3418)">
			<path id="rect5135" d="m88.697 97.346c-0.102 0-0.205 0.035-0.283 0.109l-65.908 62.305c-0.157 0.15-0.157 0.39 0 0.53l65.908 62.31c0.156 0.14 0.408 0.14 0.565 0l65.911-62.31c0.16-0.14 0.16-0.38 0-0.53l-65.911-62.305c-0.079-0.074-0.18-0.109-0.282-0.109zm-17.351 36.434c1.177 0.13 2.942 1.33 4.47 3.14 1.996 2.35 2.834 4.86 1.87 5.59-0.965 0.73-3.368-0.59-5.364-2.95s-2.833-4.87-1.869-5.6c0.121-0.09 0.264-0.15 0.426-0.17 0.142-0.03 0.299-0.03 0.467-0.01zm31.944 1.25c2.71-0.02 4.56 0.35 4.68 1.07 0.19 1.15-4.11 2.76-9.595 3.58-5.489 0.83-10.101 0.56-10.295-0.59s4.103-2.76 9.592-3.58c2.058-0.31 3.988-0.47 5.618-0.48zm0.9 6.84c2.71-0.03 4.56 0.35 4.68 1.07 0.2 1.15-4.1 2.75-9.591 3.58-5.488 0.82-10.101 0.56-10.295-0.59-0.194-1.16 4.104-2.76 9.592-3.59 2.054-0.31 3.994-0.46 5.614-0.47zm6.71 1.88c0.08 0 0.16 0.02 0.23 0.04 1.16 0.39 1.09 3.39-0.15 6.69-1.25 3.31-3.21 5.67-4.37 5.27-1.16-0.39-1.09-3.39 0.15-6.69 1.17-3.09 2.96-5.36 4.14-5.31zm-29.025 2.33c-0.993 1.04-2.946 3.07-4.059 4.23-8.777 9.12-16.202 15.93-17.306 14.84-1.116-1.1 6.281-7.64 15.726-15.02 1.782-1.4 2.817-2.2 4.491-3.51-8.936 2.43-15.931 3.57-16.149 2.3-0.214-1.25 6.976-2.33 17.297-2.84zm4.625 0.24c1.16-0.06 2.676 1.79 3.494 4.33 0.873 2.71 0.623 5.19-0.558 5.53-1.182 0.34-2.848-1.59-3.721-4.3s-0.625-5.19 0.556-5.53c0.074-0.02 0.152-0.03 0.229-0.03zm13.02 7.71c3.2 0 5.66 0.7 5.73 1.72 0.08 1.17-2.99 2.31-6.857 2.54-3.867 0.24-7.069-0.52-7.149-1.68-0.079-1.17 2.994-2.3 6.861-2.54 0.484-0.03 0.957-0.04 1.415-0.04zm-24.514 3.74c1.061-0.01 2.516 0.47 3.92 1.35 2.245 1.42 3.511 3.35 2.826 4.32s-3.063 0.62-5.309-0.8c-2.245-1.41-3.511-3.35-2.826-4.32 0.257-0.37 0.752-0.54 1.389-0.55zm44.714 1.54c-2.82 11.02-5.53 18.61-6.78 18.23-1.28-0.38 1.09-7.76 4.96-16.8-1.69 0.28-3.5 0.59-5.29 0.88-12.958 2.14-23.896 3.27-24.079 1.82-0.18-1.42 11.092-2.84 25.509-3.77 1.95-0.13 3.88-0.25 5.68-0.36zm-47.458 0.29c1.234-0.05 2.438 4.8 2.687 10.81 0.25 6.01-0.549 10.93-1.783 10.98-1.234 0.04-2.438-4.8-2.687-10.81-0.25-6.02 0.549-10.94 1.783-10.98zm12.654 2.56c1.214-0.21 3.01 3.73 4.008 8.8 0.614 3.12 0.778 5.94 0.535 7.7 1.119-0.7 4.171-1.29 8.051-1.57-0.293-0.88-0.526-1.99-0.668-3.23-3.416 0.2-5.9-0.16-6.051-1.02-0.159-0.9 2.332-2.07 5.93-2.94 0.163-3.19 0.955-5.57 1.988-5.6 0.961-0.03 1.831 1.99 2.231 4.83 1.57-0.2 3.07-0.34 4.34-0.35 2.59-0.02 4.37 0.35 4.49 1.07 0.2 1.11-3.63 2.65-8.62 3.49-0.05 1.39-0.22 2.62-0.48 3.6 0.16 0 0.31-0.01 0.48-0.02 6.73-0.11 12.22 0.74 12.24 1.9 0.02 1.17-5.43 2.21-12.16 2.33-5.9 0.11-10.839-0.53-11.992-1.48-0.171 0.51-0.406 0.81-0.707 0.86-1.214 0.22-3.008-3.73-4.006-8.8s-0.823-9.35 0.391-9.57z" transform="matrix(2.235 0 0 2.3644 154.67 142.66)"/>
		</g>
		<ellipse id="path6571" rx="88.886" ry="21.466" cy="999.5" cx="136.65"/>
		<path id="path3375" d="m90.096 45.35a88.281 19.954 0 0 0 -88.282 19.955 88.281 19.954 0 0 0 88.282 19.953 88.281 19.954 0 0 0 88.284 -19.953 88.281 19.954 0 0 0 -88.284 -19.955zm0 9.07a65.304 10.279 0 0 1 65.304 10.279 65.304 10.279 0 0 1 -65.304 10.28 65.304 10.279 0 0 1 -65.305 -10.28 65.304 10.279 0 0 1 65.305 -10.279z" transform="translate(46.727 741)"/>
	</g>
	<g id="layer2">
		<path id="path5129" d="m349.32 276.65c-1.178-0.23717-0.37-12.475 3.8148-32.029 4.1369-19.331 11.827-46.543 25.831-74.135 0.00001 0.00001 0.00001 0 0.00001 0 0.92606-1.8282 1.8824-3.6602 2.8702-5.4924 11.303-20.966 24.314-37.454 38.694-49.853 13.204-11.396 25.529-17.326 35.219-20.142 4.5878-1.3275 8.2114-1.839 10.783-1.9237 2.5297 0.04799 3.8906 0.28356 3.9527 0.71832 0.0621 0.43461-1.1773 1.0422-3.5303 1.788v0.000001c-2.4139 0.9044-5.3802 1.9964-9.5166 3.9375-8.7731 4.0944-19.265 10.444-31.229 21.883-12.969 12.411-24.617 28.133-35.562 48.352-0.95311 1.7608-1.8826 3.5216-2.7891 5.2784v0.00001c-13.606 26.418-22.288 52.818-28.043 71.336-5.8493 18.823-9.0615 30.571-10.495 30.283z" fill-rule="evenodd" clip-path="url(#clipPath3426)" transform="matrix(.35766 0 0 .35766 -36.222 -33.288)"/>
	</g>
</svg>
