<?xml version="1.0" encoding="UTF-8" standalone="no"?>
<svg id="svg3347" xmlns:rdf="http://www.w3.org/1999/02/22-rdf-syntax-ns#" xmlns="http://www.w3.org/2000/svg" height="200" width="200" version="1.1" xmlns:cc="http://creativecommons.org/ns#" xmlns:dc="http://purl.org/dc/elements/1.1/" viewBox="0 0 200.00001 200.00001">
	<g id="layer1" transform="translate(-25.429 -482.36)">
		<path id="path3357" d="m100 0a100 100 0 0 0 -100 100 100 100 0 0 0 100 100 100 100 0 0 0 100 -100 100 100 0 0 0 -100 -100zm0.73 10.287a90.339 90.601 0 0 1 90.34 90.603 90.339 90.601 0 0 1 -90.34 90.6 90.339 90.601 0 0 1 -90.337 -90.6 90.339 90.601 0 0 1 90.337 -90.603z" fill-rule="evenodd" transform="translate(25.429 482.36)"/>
		<g id="g3498" fill-rule="evenodd" transform="matrix(.27713 .23836 -.23836 .27713 157.54 355.67)">
			<path id="path4171" d="m240.86 416.24c1.6354 2.3457-20.223 14.755-44.688 44.531 0 0.00001-0.00001 0.00001-0.00001 0.00001-9.2568 11.27-18.918 25.428-25.606 41.955-4.953 12.216-8.3389 25.899-9.0045 40.273-0.2115 4.4742-0.1611 9.0089 0.1539 13.579 0.57754 8.3796 2.0221 16.557 4.1495 24.359 7.2405 26.656 22.177 48.592 36.686 64.508 9.1815 10.052 18.253 17.791 26.323 23.757 16.262 12.013 27.592 16.247 27.151 17.455-0.28463 0.7803-12.505-1.4402-30.439-12.606-8.8256-5.4902-18.784-13.002-28.824-23.078-15.937-15.965-32.291-38.73-40.424-67.388-2.3739-8.3952-3.9726-17.229-4.5967-26.32-0.34033-4.9577-0.38347-9.8858-0.13397-14.756 0.81636-15.666 4.656-30.4 10.261-43.421 7.5863-17.594 18.218-32.134 28.423-43.395 26.88-29.669 50.442-39.634 50.569-39.451z"/>
			<g>
				<path id="path4175" d="m243.82 417.14c1.0477-0.50388 18.767 25.931 29.637 71.088 4.3163 17.953 7.2334 38.031 7.9264 59.918 0.0893 2.8198 0.14002 5.6199 0.1543 8.3984v0.00001c0.15739 35.415-5.6696 68.842-10.349 90.719-4.8515 22.681-9.1124 36.244-10.295 36.009-1.4189-0.28209 0.45796-14.338 3.5201-37.187 2.8989-21.631 7.4974-55.544 7.1426-89.468v-0.00001c-0.0263-2.6989-0.0819-5.4179-0.16878-8.1556-0.67486-21.274-3.1371-40.698-6.708-58.287-8.9221-44.009-23.304-71.861-20.859-73.036z"/>
				<path id="path4183" d="m224.25 490.28c-1.0111-2.5681 4.3606-7.0903 11.99-10.094 7.6298-3.0038 14.643-3.3575 15.654-0.78934 1.0111 2.5681-4.3606 7.0903-11.99 10.094-7.6298 3.0038-14.643 3.3575-15.654 0.78934z"/>
				<path id="path4187" d="m227.26 521.46c-0.73108-2.6614 5.1372-6.5964 13.099-8.7834 7.9616-2.187 15.016-1.802 15.748 0.85943 0.73108 2.6614-5.1372 6.5964-13.099 8.7834-7.9616 2.187-15.016 1.802-15.748-0.85943z"/>
				<path id="path4191" d="m228.69 543.64c-0.27151-2.7466 6.0421-5.6217 14.093-6.4175 8.0508-0.79585 14.805 0.78737 15.077 3.534 0.27151 2.7466-6.0421 5.6217-14.093 6.4175-8.0508 0.79585-14.805-0.78737-15.077-3.534z"/>
				<path id="path4195" d="m233.13 565.62c0.29785-2.7439 5.7912-4.4008 12.262-3.6984 6.4707 0.70239 11.481 3.4994 11.183 6.2432-0.29785 2.7439-5.7912 4.4008-12.262 3.6984-6.4707-0.70239-11.481-3.4994-11.183-6.2432z"/>
				<path id="path4199" d="m232.54 587.93c1.4056-2.3752 7.7315-1.2345 14.12 2.5462 6.3888 3.7808 10.433 8.777 9.0275 11.152-1.4056 2.3752-7.7315 1.2345-14.12-2.5462-6.3888-3.7808-10.433-8.777-9.0275-11.152z"/>
				<path id="path4203" d="m229.12 613.46c1.3297-2.4186 7.5794-1.5389 13.95 1.9637 6.371 3.5025 10.462 8.3081 9.1328 10.727-1.3297 2.4186-7.5794 1.5389-13.95-1.9637-6.371-3.5025-10.462-8.3081-9.1328-10.727z"/>
				<path id="path4207" d="m230.8 639.67c1.8227-2.0726 7.387-0.16213 12.42 4.2643 5.0334 4.4265 7.6391 9.701 5.8165 11.774-1.8227 2.0726-7.387 0.16213-12.42-4.2643-5.0334-4.4265-7.6391-9.701-5.8165-11.774z"/>
				<path id="path4211" d="m222.76 467.09c-1.9093-1.993 0.59968-7.4987 5.6005-12.29 5.0008-4.7908 10.609-7.0615 12.518-5.0685 1.9093 1.993-0.59968 7.4987-5.6005 12.29-5.0008 4.7908-10.609 7.0615-12.518 5.0685z"/>
			</g>
		</g>
		<g id="g3510" transform="matrix(.34969 .10646 -.10646 .34969 32.003 410.37)">
			<path id="path4215" d="m99.855 114.7a30.647 23.447 16.933 0 0 -25.06 15.22 30.647 23.447 16.933 0 0 22.49 31.35 30.647 23.447 16.933 0 0 36.145 -13.5 30.647 23.447 16.933 0 0 -22.49 -31.36 30.647 23.447 16.933 0 0 -11.085 -1.71zm0.255 1.32a28.982 21.724 20.092 0 1 7.61 1.08 28.982 21.724 20.092 0 1 24.46 28.58 28.982 21.724 20.092 0 1 -31.55 14.62 28.982 21.724 20.092 0 1 -24.452 -28.58 28.982 21.724 20.092 0 1 23.932 -15.7z" transform="matrix(2.6171 -.79677 .79677 2.6171 40.152 193.64)" stroke="#000" stroke-width="2.9243"/>
			<ellipse id="path3452" rx="53.51" transform="matrix(.96003 .27989 -.32523 .94564 0 0)" ry="29.125" cy="367.59" cx="547.78"/>
		</g>
		<g id="g3514" fill-rule="evenodd" transform="matrix(.36233 -.048271 .048271 .36233 -26.88 349.08)">
			<path id="path3482" d="m408 575.36c-0.0966-0.0156 1.5956 8.7401-5.6207 22.675-3.3498 6.4114-8.7159 13.486-16.751 19.747-11.652 7.568-28.211 18.701-39.818 33.326-3.1813 4.0169-6.1155 8.4392-8.0662 13.225-1.416 3.4785-2.38 7.1901-2.4703 10.88-0.0903 2.9883 0.36574 6.0489 1.3747 8.9407 0.8963 2.5985 2.2626 5.1116 3.9648 7.4739 2.866 3.9773 6.679 7.4393 11.049 10.354 2.5526 1.8107 5.8424 3.0269 9.5032 4.4415 4.7852 1.7867 9.7538 3.2998 14.912 4.7055 5.3105 1.444 10.733 2.7299 16.245 3.8022 4.5922 0.88711 9.1841 1.668 13.707 1.9903 8.7834 0.62584 17.794 1.1706 26.722 1.2458 10.38 0.0874 20.405-0.46128 30.136-2.1163 8.1458-1.3814 15.897-3.5186 22.944-6.8051 7.0193-3.2425 13.311-7.6294 18.456-12.895 3.76-4.2673 6.2977-9.5659 7.5712-15.009 1.6123-6.7397 1.1637-13.853-0.7183-20.27-2.6076-9.0247-8.1989-16.991-14.288-23.486-10.333-10.933-23.234-18.821-34.026-24.534-4.4325-3.5293-8.5752-6.8472-12.411-9.9404-0.77027-0.62305-1.3963-1.2536-1.9247-1.8166-1.5043-1.5738-2.8036-3.2213-3.9293-4.851-4.6813-6.7442-6.7861-13.733-7.6898-19.007-0.00056-0.002-0.004-0.014-0.005-0.0158-0.004-0.0143-0.009-0.0287-0.0133-0.0432-0.0174-0.0549-0.0367-0.11119-0.0572-0.16867-0.10399-0.30812-0.21831-0.61448-0.33745-0.9159-0.43725-1.1046-0.92518-2.1066-1.43-3.0067-1.5299-2.6637-2.9849-4.2042-4.2099-5.2594-1.1666-1.0049-1.9118-1.4145-1.8199-1.6666 0.0688-0.18892 0.98559-0.22399 2.5582 0.49452 1.5733 0.71882 3.7206 2.201 5.7504 4.9239 0.69968 0.92065 1.391 1.973 2.0311 3.161 0.17486 0.32423 0.34844 0.66446 0.51556 1.02 0.0521 0.12008 0.10431 0.24311 0.15613 0.36898 0.0136 0.0331 0.0273 0.0665 0.0408 0.10012 0.005 0.0123 0.01 0.0248 0.0148 0.0371 1.4006 4.8363 3.924 11.17 8.538 16.986 1.1035 1.3822 2.3279 2.7477 3.6835 3.9976 0.5424 0.49422 1.0306 0.94257 1.4869 1.2544 3.8701 2.7796 8.0089 5.7729 12.397 8.9655 11.333 5.2696 24.929 12.912 36.4 24.342 6.9618 6.8907 13.453 15.766 16.93 26.485 2.4677 7.7 3.1602 16.336 1.3221 24.87-1.5154 6.9038-4.682 13.665-9.5351 19.374-5.9774 6.2605-13.219 11.476-21.309 15.332-8.0111 3.787-16.601 6.2538-25.423 7.7631-10.466 1.7858-21.081 2.4108-31.878 2.3396-9.295-0.0613-18.514-0.6376-27.392-1.3374-5.1486-0.40363-10.125-1.2635-14.88-2.2271-5.7692-1.1617-11.419-2.5478-16.928-4.1017-5.3373-1.5025-10.577-3.165-15.71-5.1472-3.7068-1.3851-7.6621-3.0114-11.431-5.6225-5.13-3.4828-9.6545-7.7859-13.182-12.822-2.1315-3.0424-3.8414-6.3758-5.0034-9.9135-1.2957-3.9787-1.8198-8.1154-1.6097-12.163 0.27935-4.9654 1.5784-9.6436 3.4433-13.828 2.5419-5.7072 6.0052-10.682 9.6595-14.975 13.152-15.469 30.458-26.113 42.726-33.099 7.5609-5.2799 12.844-11.331 16.397-16.971 7.8346-12.338 7.7293-20.849 9.2305-20.607z"/>
			<path id="path3486" d="m411 598.36c1.0452-0.58686 5.3129 1.5553 6.9476 8.859 0.73608 3.5168 0.57971 7.6795-0.90018 11.9-0.62872 1.7471-1.4101 3.4684-2.3404 5.1483-3.6921 6.6671-8.9106 11.227-12.834 13.752-4.0016 2.5756-7.0005 3.338-7.8732 2.3413-0.9279-1.0597 0.38877-3.7805 2.9277-7.4925 2.2335-3.2654 6.5195-8.7003 9.104-13.393 0.71808-1.3039 1.3372-2.5812 1.8698-3.8626 1.2226-2.8259 1.8948-5.3475 2.1243-7.7054 0.57451-4.893-0.65062-8.6339 0.97425-9.5463z"/>
			<path id="path3490" d="m426 603.36c2.509-0.85717 7.9998 6.6113 8.3385 18.291 0.33928 11.7-4.7628 19.466-7.3385 18.709-1.3364-0.39283-1.8886-2.732-2.1672-6.0186-0.25014-2.9509-0.34235-7.9941-0.47564-12.395-0.2814-9.2923-0.90102-17.717 1.6428-18.586z"/>
			<path id="path3494" d="m438 600.36c1.2452-0.63281 3.4187 0.95572 5.974 3.9772 2.8206 3.3351 5.1041 7.0372 8.4311 11.753 0.65414 0.92726 1.29 1.8057 1.9303 2.661 1.7257 2.321 3.1996 4.0754 4.7881 5.6431 3.23 3.2746 6.3658 5.1928 5.8765 6.9653-0.37651 1.3639-4.4324 2.5912-10.36-0.17747-2.7829-1.3327-5.5516-3.4234-7.9713-6.238-0.84354-0.98198-1.6506-2.0212-2.4181-3.1134-3.6107-5.1385-5.6752-10.501-6.6028-14.288-0.94781-3.8702-0.8564-6.5686 0.35234-7.1828z"/>
		</g>
	</g>
</svg>
