<?xml version="1.0" encoding="UTF-8" standalone="no"?>
<svg id="svg3520" xmlns:rdf="http://www.w3.org/1999/02/22-rdf-syntax-ns#" xmlns="http://www.w3.org/2000/svg" viewBox="0 0 497.58589 464.98963" height="131.23mm" width="140.43mm" version="1.1" xmlns:cc="http://creativecommons.org/ns#" xmlns:dc="http://purl.org/dc/elements/1.1/">
	<g id="layer1" fill-rule="evenodd" transform="translate(-10.952 -443.58)">
		<path id="path3637" d="m150.69 649.84c-1.5117-1.4808 39.932-45.161 103.87-109.21 30.828 29.016 66.235 62.52 104.09 98.502 1.4786 1.4054 2.9535 2.8076 4.4246 4.2062-38.588 37.127-74.148 71.179-105.11 100.63-66.073-55.177-108.58-92.583-107.27-94.127 1.3119-1.5462 44.825 34.044 107.08 87.744 29.261-28.212 62.311-59.851 98.408-94.231-1.3767-1.3023-2.7565-2.6078-4.1394-3.9163-35.382-33.481-68.275-64.755-97.363-92.568-59.966 62.428-102.47 104.46-103.98 102.97z"/>
		<path id="path3641" d="m235.13 550.24c1.8945-2.0071 29.379 20.856 61.349 51.033 31.97 30.178 56.38 56.298 54.485 58.305-1.8945 2.0071-29.379-20.856-61.349-51.033-31.97-30.178-56.38-56.298-54.485-58.305z"/>
		<path id="path3645" d="m219.97 562.15c1.9044-1.9977 29.397 21.115 61.367 51.592 31.97 30.476 56.372 56.832 54.467 58.83-1.9044 1.9977-29.397-21.115-61.367-51.592-31.97-30.476-56.372-56.832-54.467-58.83z"/>
		<path id="path3649" d="m205.9 576.22c1.8845-2.0165 29.361 20.596 61.331 50.475s56.388 55.765 54.503 57.781c-1.8845 2.0165-29.361-20.596-61.331-50.475s-56.388-55.765-54.503-57.781z"/>
		<path id="path3653" d="m193.99 590.3c1.8752-2.0252 29.586 20.581 61.855 50.459 32.269 29.879 56.937 55.772 55.061 57.797-1.8752 2.0252-29.586-20.581-61.855-50.459-32.269-29.879-56.937-55.772-55.061-57.797z"/>
		<path id="path3657" d="m183.17 605.45c1.8641-2.0353 29.324 20.077 61.294 49.358s56.404 54.697 54.54 56.733c-1.8641 2.0353-29.324-20.077-61.294-49.358s-56.404-54.697-54.54-56.733z"/>
		<path id="path3661" d="m171.26 617.36c1.8324-2.0639 29.267 19.298 61.237 47.683s56.43 53.097 54.598 55.161c-1.8324 2.0639-29.267-19.298-61.237-47.683s-56.43-53.097-54.598-55.161z"/>
		<path id="path3665" d="m158.27 628.19c1.8641-2.0353 29.324 20.077 61.294 49.358s56.404 54.697 54.54 56.733c-1.8641 2.0353-29.324-20.077-61.294-49.358s-56.404-54.697-54.54-56.733z"/>
		<path id="path3669" d="m268.69 547c1.9794 1.9234-21.391 29.189-52.166 60.86s-57.358 55.815-59.338 53.891c-1.9794-1.9234 21.391-29.189 52.166-60.86s57.359-55.815 59.338-53.891z"/>
		<path id="path3673" d="m277.35 558.9c1.9991 1.903-20.385 28.667-49.965 59.741s-55.209 54.749-57.208 52.846c-1.9991-1.903 20.385-28.667 49.965-59.741s55.209-54.749 57.208-52.846z"/>
		<path id="path3677" d="m288.18 570.81c1.9902 1.9122-20.159 28.199-49.44 58.675s-54.661 53.659-56.651 51.747c-1.9902-1.9122 20.159-28.199 49.44-58.675s54.661-53.659 56.651-51.747z"/>
		<path id="path3681" d="m301.17 579.47c1.9995 1.9025-20.142 28.423-49.423 59.199-29.281 30.775-54.668 54.208-56.668 52.306-1.9995-1.9025 20.142-28.423 49.423-59.199 29.281-30.775 54.668-54.208 56.668-52.306z"/>
		<path id="path3693" d="m311.99 591.38c2.0177 1.8832-20.109 28.873-49.39 60.246s-54.683 55.306-56.701 53.423c-2.0177-1.8832 20.109-28.873 49.39-60.246s54.683-55.306 56.701-53.423z"/>
		<path id="path3697" d="m322.82 602.21c2.019 1.8818-19.622 28.386-48.305 59.161-28.684 30.775-53.602 54.225-55.621 52.343-2.019-1.8818 19.622-28.386 48.305-59.161 28.684-30.775 53.602-54.225 55.621-52.343z"/>
		<path id="path3701" d="m333.64 611.95c2.0386 1.8605-19.101 28.347-47.187 59.123-28.086 30.775-52.535 54.242-54.574 52.382-2.0386-1.8605 19.101-28.347 47.187-59.123 28.086-30.775 52.535-54.242 54.574-52.382z"/>
		<path id="path3705" d="m345.55 626.02c1.9914 1.911-19.429 27.469-47.814 57.049s-53.038 52.036-55.029 50.125c-1.9914-1.911 19.429-27.469 47.814-57.049s53.038-52.036 55.029-50.125z"/>
		<path id="path3709" d="m237.3 558.9c-2.5806-0.97884-2.0076-8.8056 1.2791-17.47 3.2867-8.6648 8.0485-14.903 10.629-13.924 2.5806 0.97884 2.0076 8.8056-1.2791 17.47-3.2867 8.6648-8.0485 14.903-10.629 13.924z"/>
		<path id="path3713" d="m254.62 527.51c2.423-1.3216 7.2994 2.9406 10.885 9.5139 3.5854 6.5733 4.5289 12.981 2.1059 14.302-2.423 1.3216-7.2994-2.9406-10.885-9.5139-3.5854-6.5733-4.5289-12.981-2.1059-14.302z"/>
		<path id="path3737" d="m236.21 539.42c-0.7728-2.6496 4.4199-6.4975 11.591-8.589 7.1709-2.0915 13.618-1.6386 14.391 1.011 0.7728 2.6496-4.4199 6.4975-11.591 8.589-7.1709 2.0915-13.618 1.6386-14.391-1.011z"/>
		<path id="path3741" d="m237.3 532.92c-0.7024-2.6691 3.3349-6.0478 9.0119-7.5418 5.677-1.4939 10.854-0.54017 11.557 2.129 0.7024 2.6691-3.3349 6.0478-9.0119 7.5418-5.677 1.4939-10.854 0.54017-11.557-2.129z"/>
		<path id="path3745" d="m257.86 527.51c1.656-2.208 4.94-2.545 7.3303-0.75231s2.9863 5.0397 1.3303 7.2477-4.94 2.545-7.3303 0.75231-2.9863-5.0397-1.3303-7.2477z"/>
		<path id="path3749" d="m241.15 528.81c-0.82595 0.11067-2.2419-3.5543-3.6753-10.226-1.3493-6.2802-3.0142-16.778-2.6518-28.435 1.5184-14.094 6.8478-30.698 17.945-46.565 0.0923 0.15235 0.18442 0.30495 0.27633 0.45779 10.329 17.176 16.071 33.962 18.395 48.534 0.69936 7.7005 0.52722 14.26-0.36986 20.027-0.99556 6.4201-2.7553 10.647-5.0915 13.468-2.4302 1.7659-3.8664 2.4625-4.2529 2.076-0.38567-0.38567 0.30451-1.8187 1.808-3.9849 1.2046-3.1929 1.4758-5.9498 1.4993-12.059 0.0233-5.413-0.50013-11.214-1.7346-18.476v-0.00001c-1.2914-13.414-4.0946-28.97-10.512-44.781-0.0576-0.14186-0.11535-0.28351-0.17333-0.42496-6.8395 14.226-9.0899 29.404-9.472 42.314-1.1558 10.253-0.88918 21.475-0.88503 27.337 0.005 6.7261-0.21025 10.62-1.1056 10.74z"/>
		<path id="path4585" d="m275.19 559.99c-1.132-0.54688 6.3582-24.222 24.609-55.653 3.1052-5.3495 6.652-11.076 10.721-16.683 2.5833-3.5762 5.5328-7.314 9.0736-10.753 1.9963-2.0414 4.6405-4.22 8.1913-5.7303 1.2035-0.51649 2.6989-0.85498 4.4479-0.88413 1.5218 0.004 3.0601 0.39744 4.5175 1.193 1.4323 0.85598 2.5243 1.8883 3.2721 2.9922 0.68161 0.98501 1.1981 1.9612 1.577 2.8954 0.1115 0.27489 0.21092 0.54573 0.29904 0.81164 1.0398 3.095 1.3911 6.0716 1.4652 8.7247 0.14861 3.6752-0.0699 7.2357-0.44707 10.611-0.46492 4.2181-1.1799 8.3082-2.0245 12.221-2.1232 9.8462-5.0788 18.898-8.3154 26.936-4.1734 10.388-8.7228 18.819-13.394 25.703-9.1461 13.557-17.604 18.44-18.38 17.492-0.61677-0.7542 5.867-7.4102 12.972-20.753 3.7222-7.0423 7.3151-15.215 10.789-25.419 2.6647-7.8486 5.1313-16.558 6.8898-25.871 0.69718-3.6974 1.2851-7.4914 1.646-11.317 0.28591-3.0829 0.454-6.1636 0.30054-9.1511-0.14733-2.2324-0.32742-4.2639-0.93625-5.8622-0.0504-0.12843-0.0983-0.24993-0.14422-0.36342-0.15629-0.38583-0.29038-0.67804-0.43204-0.84517-0.12946-0.12905-0.17125-0.22479-0.0523-0.10515 0.173 0.0699 0.23829 0.10084 0.29277 0.089-0.021-0.0476-0.27179 0.0545-0.70545 0.17993-1.5336 0.48384-3.1463 1.9592-5.0144 3.6017-2.9628 2.7606-5.6357 6.0446-8.1858 9.35-3.9442 5.1361-7.554 10.529-10.818 15.59-19.263 29.879-29.849 52.142-32.214 51z"/>
		<path id="path4589" d="m305.5 589.22c-0.72808-0.58692 3.2002-7.0871 10.99-17.597 7.4523-10.054 19.771-25.515 34.974-40.926 5.2967-5.3711 11.259-11.036 17.864-16.298 4.2178-3.3778 8.9513-6.7854 14.333-9.5025 3.2141-1.7093 7.1835-3.2148 11.822-3.4445 1.6787-0.067 3.4998 0.17342 5.3652 0.81713 1.6775 0.60895 3.2057 1.5626 4.4984 2.8175 1.3065 1.3069 2.2828 2.7474 2.9508 4.2175 0.0521 0.11337 0.10293 0.22671 0.15252 0.34 0.68266 1.5597 1.1256 3.1016 1.3922 4.5695 0.72383 3.9911 0.64568 7.8257 0.26141 11.316-0.47249 4.6046-1.4042 9.0207-2.5234 13.188-1.3593 5.0849-3.0246 9.9586-4.8318 14.579-4.4459 11.376-9.7991 21.533-15.336 30.347-6.9668 11.116-13.954 19.655-20.903 26.319-4.255 4.0821-8.1831 7.1029-11.782 9.353-7.36 4.6119-12.191 5.1505-12.421 4.545-0.28642-0.75511 3.8572-2.7549 9.8945-7.9804 3.0363-2.6339 6.2603-5.8207 9.9231-10.081 5.9983-6.9783 11.914-15.377 18.123-26.417 4.8845-8.7063 9.6381-18.574 13.59-29.449 1.6018-4.4121 3.0721-8.9916 4.2478-13.679 0.96343-3.8612 1.7584-7.786 2.1164-11.692 0.25064-3.0162 0.35266-5.9125-0.17691-8.4706-0.18854-0.91031-0.40515-1.7284-0.71027-2.3951-0.0222-0.0485-0.0448-0.0961-0.0679-0.1429-0.29365-0.57795-0.57788-1.0499-0.88092-1.3137-0.25029-0.25088-0.58515-0.46138-0.92202-0.58306-0.40075-0.17821-1.0098-0.22816-1.7237-0.23847-2.2457-0.0662-4.863 1.0651-7.68 2.3364-4.479 2.1563-8.7269 5.1479-12.8 8.2302-6.2879 4.7839-12.179 10.07-17.538 15.101-14.861 13.958-29.114 29.434-37.138 37.945-8.9237 9.4654-14.275 14.824-15.064 14.188z"/>
		<path id="path4593" d="m342.3 626.02c-0.10251-0.89061 8.9984-2.9685 25.02-5.2528 15.317-2.1838 39.678-4.9054 66.579-5.2129 9.6152-0.11064 20.078 0.0951 30.768 1.1429 7.0416 0.68146 14.507 1.7529 21.938 3.8404 4.6592 1.261 9.6843 3.1154 14.308 6.3632 1.6206 1.1409 3.2078 2.5929 4.6009 4.4124 1.169 1.5308 2.0844 3.3617 2.6174 5.4346 0.47162 1.9796 0.52199 3.9778 0.1838 5.8847v0.00002c-0.37568 2.0469-1.0679 3.8927-1.9548 5.5032-0.35199 0.63352-0.72358 1.2456-1.1121 1.8373-2.0701 3.1523-4.6008 5.6927-7.1444 7.7726-4.0701 3.4101-8.4524 6.1678-12.802 8.5145-5.4776 2.9679-11.085 5.4148-16.624 7.4929-14.251 5.3501-28.466 8.5395-41.678 10.35-17.807 2.4515-33.691 2.3326-47.321 0.7613h-0.00001c-30.025-3.445-45.302-13.681-44.957-14.459 0.65424-1.472 16.801 6.1382 45.532 7.7025h0.00001c13.206 0.7118 28.368 0.14148 45.416-2.7252 12.638-2.1335 26.145-5.469 39.527-10.712 5.1965-2.0372 10.382-4.359 15.347-7.1057 3.9569-2.1991 7.7821-4.608 11.118-7.4505 2.0754-1.8197 3.9754-3.6417 5.2451-5.5966 0.23857-0.36732 0.45465-0.73889 0.64562-1.1158 0.46138-0.89851 0.80768-1.7334 0.91557-2.4766v-0.00001c0.10423-0.64564 0.10529-1.2833-0.0351-1.806-0.11342-0.57016-0.45707-1.2054-0.906-1.841-0.56474-0.80176-1.4334-1.5601-2.4425-2.3218-3.0193-2.2819-7.0262-3.6924-11.2-4.9766-6.5674-1.9462-13.486-3.0212-20.233-3.8204-10.189-1.1943-20.363-1.6402-29.789-1.8297-25.765-0.5158-51.317 0.87563-66.052 1.5852-16.09 0.7748-25.397 1.0918-25.511 0.10475z"/>
		<path id="path4597" d="m336.48 671.51c0.14406-0.2822 29.178 9.7571 70.886 35.545h0.00001c6.4573 3.9908 13.494 8.5827 20.285 13.85 4.0534 3.1241 8.3608 6.7252 12.113 11.16 1.2021 1.4131 2.3903 3.0357 3.4068 4.9218 0 0.00001 0.00001 0.00002 0.00001 0.00002 0.75122 1.3362 1.3793 2.9997 1.6672 4.9798v0.00003c0.22886 1.6027 0.0136 3.3673-0.73716 5.1438-0.00001 0-0.00001 0.00003-0.00001 0.00003-0.82121 1.6893-1.9447 2.9955-3.2125 3.8857-1.4708 1.0512-2.9608 1.7482-4.3542 2.1845 0.00001-0.00001-0.00002 0-0.00002 0-1.7355 0.56971-3.4421 0.92219-5.078 1.1412-4.2088 0.57077-8.3515 0.55172-12.4 0.2999-5.0346-0.2977-10.04-0.94161-15.062-1.795-5.619-0.95242-11.244-2.164-16.902-3.5894-11.717-2.9492-23.583-6.777-35.369-11.624-7.8861-3.2296-15.899-6.9554-23.571-11.541-2.4237-1.4487-4.7981-2.9738-7.1155-4.5868-3.9264-2.7249-7.7294-5.7997-11.126-9.4411-1.3036-3.6801-2.3615-7.9647-2.5242-12.951 14.492 18.245 27.289 35.084 38.613 52.673 3.3213 6.0466 6.387 11.996 9.0699 18.116 1.831 4.1466 3.5008 8.393 4.6016 12.94 0.37623 1.5379 0.67175 3.1879 0.78656 4.9482v0.00002c0.1053 1.2708 0.0369 2.7423-0.33854 4.3493-0.26728 1.254-0.94281 2.5845-2.0698 3.846l-0.00003 0.00002c-1.1422 1.1271-2.4416 1.8348-3.7722 2.1337-1.5041 0.32378-2.8392 0.33041-3.9492 0.1485h-0.00001c-1.435-0.20297-2.7231-0.55914-3.8635-0.9748-3.1084-1.1213-5.8591-2.6302-8.3067-4.1419-3.3436-2.0444-6.4538-4.268-9.3322-6.4675-3.5596-2.7172-6.9058-5.5069-10.013-8.2292-7.7103-6.755-14.347-13.406-19.861-19.387-6.964-7.5468-11.845-13.647-15.637-19.244-2.1552-3.1778-3.6112-5.7105-4.6726-8.0374-1.7823-3.8264-1.748-6.0846-1.2909-6.1499 0.18429-0.0263 1.08 1.8997 3.2189 5.0597 1.4387 2.0775 3.02 4.1135 5.5011 7.0351 4.3667 5.1353 9.3566 10.428 16.765 17.526 5.7672 5.5197 12.605 11.699 20.385 17.944 3.1345 2.5154 6.4728 5.0801 9.9664 7.5451 2.836 1.999 5.8143 3.9788 8.9049 5.7247 2.3176 1.2954 4.639 2.504 6.9543 3.2275 0.83901 0.25754 1.5996 0.45965 2.2652 0.51354 0-0.00001 0.00001 0 0.00001 0 0.51988 0.0174 0.8691 0.045 0.97265-0.0342 0.004-0.036-0.0252 0.003-0.21153 0.12488-0.0876 0.16774-0.12068 0.0793-0.0246-0.144 0.11254-0.37947 0.077-0.98574 0.0369-1.7771v-0.00001c-0.0846-1.0677-0.33878-2.2191-0.66205-3.4696-0.9778-3.739-2.569-7.4437-4.3849-11.39-2.6567-5.7292-5.7128-11.372-9.0642-17.241-8.854-18.453-18.701-36.263-30.035-56.085 2.3058 1.7698 5.604 3.427 9.2641 5.0839 2.7232 2.9382 5.9973 5.5372 9.5491 8.0278 2.1066 1.4724 4.2829 2.871 6.5216 4.2074 7.0834 4.2284 14.661 7.7547 22.25 10.927 11.304 4.7054 22.705 8.4752 33.978 11.441 5.4378 1.4295 10.804 2.6554 16.134 3.6331 4.7773 0.8739 9.4325 1.551 14.032 1.8949 3.7483 0.26739 7.2797 0.37707 10.614-0.0373 1.2798-0.16187 2.4499-0.36278 3.4801-0.69215l0.00001-0.00001c0.82499-0.28491 1.4864-0.52889 1.8819-0.84102 0.26884-0.23232 0.46763-0.36735 0.4343-0.39384 0.0484 0.036 0.0429-0.16732 0.053-0.45153 0.003-0.47844-0.29036-1.156-0.66646-1.9932l-0.00001-0.00002c-0.55747-1.1485-1.385-2.3013-2.3179-3.4906-2.9698-3.7578-6.7883-7.0842-10.579-10.231-6.2902-5.1885-12.987-9.8766-19.179-14.04l-0.00001-0.00001c-40.159-26.988-68.083-39.414-66.91-41.711z"/>
		<path id="path4601" d="m237.97 545.63c-0.33102 0.24301-3.818-4.0211-10.383-12.114-5.5634-6.8584-17.146-21.28-29.681-34.14-3.8064-3.9019-8.1375-8.1491-12.87-11.839-2.7127-2.0857-5.5623-4.1854-8.6021-5.2438-0.91363-0.30978-1.7671-0.54514-2.508-0.52965-0.52483 0.0173-0.99628 0.0855-1.2738 0.27466-0.27974 0.1314-0.55967 0.44724-0.81684 0.82671l-0.00001 0.00001c-0.32597 0.48116-0.54306 1.1519-0.74485 1.9285-0.54288 2.1498-0.4496 4.5804-0.24822 7.2382 0.29201 3.4044 0.9495 6.8458 1.7898 10.424 1.982 8.4141 4.877 16.833 8.468 25.676 3.4204 8.4048 7.4474 17.045 12.287 25.465 1.9987 3.4749 4.1411 6.9278 6.5089 10.207 1.8754 2.5835 3.8337 5.0682 6.0444 7.1424 0.84745 0.7929 1.6877 1.5084 2.5483 2.0679 0.7022 0.44166 1.3292 0.79738 1.8838 0.94112 0.42599 0.0959 0.75655 0.16415 0.90173 0.0966 0.81024 1.0028 1.7087 1.8816 2.6184 2.7387-1.6227 1.9189-3.2538 3.8587-4.8933 5.8196-20.971-14.314-45.171-30.445-70.552-44.065-6.9183-3.817-14.057-7.5282-21.418-10.552-4.5781-1.8531-9.1023-3.5619-13.564-4.1558-1.3918-0.17583-2.652-0.28062-3.7197-0.12797-0.75252 0.13847-1.3281 0.24223-1.5523 0.45275-0.14242 0.0857-0.29312 0.25372-0.3471 0.39443l-0.000002 0.00001c-0.15191 0.20773-0.19323 0.70527-0.25172 1.3654l-0.000003 0.00002c-0.04242 0.84738 0.12027 1.8391 0.35404 2.9513 0.30014 1.3537 0.76914 2.7434 1.3244 4.1807 0.000003 0 0.000015 0.00003 0.000015 0.00003 1.4077 3.6347 3.3308 7.1841 5.4675 10.78 2.5802 4.323 5.4563 8.5351 8.5229 12.72 3.3639 4.5872 6.9339 9.0808 10.676 13.514 7.4593 8.833 15.516 17.392 24.242 25.371 3.785 3.4594 7.6826 6.8 11.749 9.8779 3.3101 2.496 6.6524 4.8246 10.136 6.6547 0-0.00001 0.00004 0.00002 0.00004 0.00002 1.362 0.71405 2.6915 1.3424 4.0019 1.8008 1.0705 0.3609 2.0262 0.64002 2.8529 0.69994h0.00002c0.64171 0.0168 1.0959 0.0448 1.2482-0.0643 0.64107 1.2962 1.3266 2.5528 1.919 3.8355-19.167 0.27326-38.791 0.88644-58.566 2.157-14.821-0.0661-29.858 0.1712-44.868 1.1553-10.361 0.68398-20.74 1.6632-30.872 3.5821-6.4278 1.2477-12.665 2.6586-18.095 5.2696-0.81692 0.39677-1.5961 0.79867-2.3187 1.2211-0.81628 0.47724-1.5594 0.98018-2.2035 1.5314-0.87749 0.78489-1.5866 1.4937-1.8713 2.1645-0.24162 0.48004-0.37679 1.039-0.34046 1.5078-0.01881 0.56372 0.26346 1.3126 0.65132 2.1643l0.000015 0.00003c0.50531 1.053 1.328 2.114 2.2961 3.2232l0.000029 0.00004c1.1873 1.3358 2.5901 2.5882 4.109 3.8161l0.000042 0.00003c3.8514 3.1092 8.2468 5.7296 12.829 8.1864 5.6081 2.9924 11.455 5.5987 17.398 7.9742 6.6486 2.6551 13.407 4.9926 20.215 7.0711 14.024 4.2745 28.107 7.503 42.22 9.2384l0.00005 0.00001c6.2909 0.77105 12.507 1.2434 18.641 1.1604 5.1025-0.0863 10.016-0.45503 14.556-1.6632 1.8368-0.48893 3.5578-1.0706 5.0815-1.8447 1.3083-0.67456 2.4691-1.4149 3.3347-2.2856 0.77957-0.77186 1.4146-1.6518 1.7803-2.5623 1.7728-0.37751 3.2959-0.97611 4.6454-1.6342-17.299 18.153-33.334 35.488-48.037 54.027-5.0694 5.7183-9.8677 11.408-14.188 17.348-2.8737 3.9778-5.5045 7.8424-7.349 11.901l-0.000012 0.00003c-0.60492 1.3418-1.1109 2.6011-1.387 3.7989 0.000005 0-0.000008 0.00003-0.000008 0.00003-0.18036 0.88885-0.31516 1.6009-0.23089 2.0877 0.06503 0.3063 0.08366 0.51503 0.11409 0.47928h-0.000002c-0.04669 0.0135 0.11152 0.0947 0.3321 0.23457l0.000011 0.00001c0.33612 0.19807 0.92312 0.29739 1.6652 0.40958h0.000031c0.93356 0.11589 1.9847 0.0849 3.1224 0.001 3.0372-0.2325 6.1736-1.0073 9.3719-1.9188l0.00004-0.00001c4.1002-1.1851 8.1498-2.6757 12.144-4.2867 4.6805-1.8903 9.2735-3.9676 13.77-6.1365 9.9983-4.8233 19.552-10.103 28.626-15.63 8.5944-5.2416 16.624-10.55 24.034-16.437 2.8754-2.2889 5.5771-4.5753 7.9814-7.047 0 0 0.00003-0.00001 0.00003-0.00001 2.7844-1.1982 5.3256-2.1534 7.0822-3.2062-6.024 11.253-11.546 21.823-16.769 32.414-4.855 7.9117-9.2378 15.456-13.137 23.094-2.8224 5.5408-5.295 10.816-7.1117 16.232-1.1325 3.4989-2.0896 6.7048-1.9751 9.756 0.043 0.95078 0.13096 1.7838 0.40726 2.4117 0.19937 0.46649 0.45495 0.87521 0.75472 1.0958l0.00001 0.00001c0.28459 0.26756 0.77334 0.4508 1.3285 0.59071 0.70384 0.16869 1.5449 0.15898 2.4527 0.0896 2.5313-0.20589 5.1374-1.134 7.7014-2.1594 3.4974-1.4253 6.8598-3.2117 10.028-5.0394 8.5232-4.9219 16.281-10.606 22.747-15.667 8.4103-6.5888 14.992-12.448 20.499-17.899l0.00001-0.00001c2.9205-2.8919 5.2405-5.3689 7.2998-7.8494 1.9336-2.3461 3.2404-4.069 4.1929-6.0522 0.35713-0.76163 0.61135-1.3921 0.67547-2.0257 0.0262-0.25345 0.0293-0.479-0.0128-0.67663-0.0367-0.18255-0.10397-0.34943-0.19892-0.48113-0.10396-0.15447-0.26706-0.28575-0.44078-0.39107-0.24146-0.14548-0.53221-0.23779-0.80446-0.30466-1.8249-0.44459-2.7931 0.01-2.8528-0.3283 0.003 0.0171 0.86853-0.75552 2.9904-0.61795 0.33968 0.0221 0.73446 0.0873 1.1418 0.24951 0.30251 0.12055 0.61467 0.31169 0.88949 0.59704 0.23896 0.25609 0.42662 0.56773 0.54095 0.9169 0.1167 0.3612 0.16746 0.73618 0.16232 1.1073-0.0122 0.88074-0.23126 1.74-0.56621 2.6037-0.84783 2.242-2.131 4.2958-3.9404 6.78-1.9406 2.6813-4.1951 5.3921-7 8.4657l-0.00001 0.00001c-5.291 5.8002-11.768 12.073-20.04 19.029-6.3743 5.3648-14.095 11.393-22.78 16.738-3.2234 1.9861-6.7327 3.9641-10.505 5.6221-2.7024 1.2083-5.7674 2.3367-9.1586 2.7578-1.251 0.15918-2.6316 0.1726-4.0874-0.0865-1.2367-0.21503-2.5067-0.72811-3.6783-1.5982l-0.00004-0.00002c-1.1471-0.90984-1.9952-2.052-2.5138-3.2982-0.61527-1.4989-0.87823-2.9941-0.91796-4.3795-0.14192-4.1893 0.82825-8.1143 2.0243-11.787 1.8491-5.875 4.3321-11.496 7.1208-17.208 3.8564-7.9156 8.1915-15.7 12.968-23.779 6.9951-9.702 14.579-19.396 22.85-29.431-0.3614 3.5274-1.2393 6.3775-2.0043 8.8707 0-0.00001-0.00001 0.00003-0.00001 0.00003-2.6997 2.8374-5.6071 5.3809-8.5855 7.8037-7.6786 6.257-15.913 11.862-24.612 17.297-9.2057 5.7584-18.932 11.273-29.152 16.334-4.6004 2.2788-9.339 4.4776-14.212 6.5023-4.1459 1.7247-8.4525 3.3504-12.924 4.6936 0-0.00001-0.00004 0.00001-0.00004 0.00001-3.431 1.0438-7.1195 1.9561-11.05 2.3309-1.4919 0.14528-3.102 0.18271-4.8046 0.0169h-0.000056c-1.3558-0.11197-2.8693-0.45948-4.4506-1.1592l-0.000069-0.00003c-1.3783-0.60871-2.6781-1.6268-3.7558-3.0527l-0.000054-0.00007c-1.04-1.5302-1.5998-3.1335-1.7295-4.6607-0.16845-1.8918 0.01716-3.5906 0.38642-5.039l0.000017-0.00005c0.47258-1.986 1.1523-3.7974 1.9078-5.4483 0.000003 0.00001 0.000021-0.00004 0.000021-0.00004 2.244-4.936 5.1423-9.3409 8.1393-13.492 4.5299-6.3148 9.4717-12.272 14.608-18.136 17.402-17.897 36.243-34.456 56.412-51.5 1.3753 2.9051 2.3086 5.9004 2.7145 8.8275-0.92661 2.2124-2.2721 4.1604-3.9143 5.7626-1.7701 1.7131-3.7299 3.0359-5.7296 4.0284-2.2953 1.1504-4.6431 1.9795-6.9586 2.5841-5.6484 1.4749-11.341 1.9722-16.876 2.042-6.7066 0.10547-13.368-0.36826-19.967-1.1655l-0.00005-0.00001c-14.79-1.781-29.445-5.0898-43.921-9.4812-7.048-2.1347-14.073-4.5515-21.014-7.31-6.1973-2.4605-12.378-5.2122-18.403-8.4125-4.8968-2.5893-9.8117-5.5459-14.392-9.1996 0.000002-0.00001-0.000045-0.00004-0.000045-0.00004-1.8214-1.4514-3.6206-3.077-5.2991-4.9372 0 0-0.000042-0.00005-0.000042-0.00005-1.3845-1.5144-2.7034-3.3011-3.7851-5.4023l-0.000033-0.00007c-0.92384-1.7554-1.5591-3.8514-1.7093-6.208-0.08753-2.2853 0.40468-4.5037 1.4135-6.4854 1.198-2.2482 2.7472-4.0112 4.3912-5.3238 1.1404-0.93325 2.3156-1.7426 3.4996-2.4504 1.0482-0.6266 2.1021-1.1729 3.1431-1.6546 6.7568-3.1512 13.798-4.8199 20.518-6.0501 10.738-2.0141 21.517-3.0334 32.078-3.7051 15.341-0.98252 30.609-1.1985 45.569-1.093 21.176 1.5061 42.141 3.623 62.511 5.9539-0.65162 2.8069-1.6545 5.2068-2.8753 7.1229-1.9292 0.58091-3.7168 0.69532-5.2527 0.49511h-0.00007c-1.9111-0.21292-3.6285-0.66964-5.142-1.2323-1.8915-0.68604-3.6444-1.5096-5.2748-2.3868l-0.00004-0.00002c-4.1438-2.2261-7.9083-4.8489-11.412-7.5414-4.3523-3.332-8.4576-6.8806-12.376-10.504-9.0282-8.345-17.314-17.242-24.936-26.388-3.8334-4.597-7.5043-9.2807-10.977-14.082-3.1634-4.3707-6.1684-8.8451-8.9065-13.5-2.2629-3.8316-4.3778-7.8509-6.0381-12.173l-0.000015-0.00004c-0.6624-1.7209-1.2486-3.545-1.6757-5.48-0.3581-1.5645-0.5781-3.3027-0.52755-5.1838v-0.00006c0.01643-1.5381 0.37536-3.2518 1.1977-5.0077l0.000038-0.00007c0.83669-1.6545 2.0888-3.016 3.6458-3.9804 1.8028-1.042 3.5909-1.5544 5.1966-1.6876 2.1674-0.21999 4.1837-0.0894 5.9977 0.20256 5.6947 0.88803 10.89 2.8316 15.626 4.8631 7.7994 3.2982 15.188 7.2178 22.197 11.186 24.129 14.055 46.977 30.55 66.75 45.131 1.7118 0.0458 3.414 0.0809 5.1067 0.10534-0.40726 1.9443-1.0898 3.5993-1.9573 4.8743-1.5789 0.21337-3.0254 0.0517-4.2584-0.36931-1.4683-0.48657-2.7184-1.1592-3.7633-1.8924-1.3116-0.90126-2.463-1.893-3.4881-2.8994-2.6555-2.6019-4.8598-5.4527-6.8059-8.258-2.499-3.5835-4.7112-7.2715-6.7279-10.922-4.8845-8.8358-8.8821-17.812-12.223-26.493-3.5136-9.1099-6.3316-17.908-8.2216-26.744-0.80624-3.7571-1.4245-7.4943-1.6708-11.281-0.21324-2.8817-0.18471-5.915 0.58812-8.9692 0.2873-1.1579 0.77041-2.3664 1.5286-3.5288l0.00002-0.00004c0.6707-1.0272 1.6257-1.9176 2.8235-2.5544 1.2909-0.62636 2.6112-0.86198 3.831-0.79658 1.5599 0.0789 2.9553 0.45384 4.1589 0.94297 3.8823 1.5536 7.088 3.9832 9.8082 6.2685 4.9002 4.06 9.2302 8.5638 12.959 12.655 12.591 13.804 23.003 28.116 28.354 35.719 6.0124 8.541 8.9005 13.241 8.6204 13.447z"/>
		<path id="path4605" d="m276.31 560.38c-0.8693-0.42823 0.43192-5.3206 3.6572-13.328 3.0982-7.6922 8.4944-19.478 15.864-31.73 2.4332-4.0503 5.2495-8.4054 8.5751-12.606 1.9575-2.5148 4.3292-5.2197 7.3912-7.5858 1.5268-1.4328 4.1294-2.7936 7.8091-3.0962 1.4591-0.0127 2.9258 0.36149 4.3108 1.1306 0 0.00001 0.00001 0.00001 0.00001 0.00001 1.3575 0.83378 2.369 1.8088 3.0353 2.8272 1.0474 1.6279 1.7253 3.2311 2.142 4.7182 0.23377 0.83432 0.38383 1.6268 0.47171 2.3603 0.49134 2.9853 0.57962 5.8536 0.50568 8.5117-0.18307 7.4195-1.3813 14.494-2.8073 20.832-1.8435 8.2664-4.2037 15.671-6.8147 22.181-3.0724 7.7116-6.2122 13.514-9.7595 18.183-1.939 2.5673-3.8127 4.4345-5.6777 5.7765-3.5029 2.5984-5.9163 2.0903-6.0359 1.591-0.10491-0.43803 1.5726-1.6604 3.5663-4.1922 1.2219-1.6067 2.2703-3.357 3.6328-6.0273 2.4971-4.9306 4.4661-10.175 6.8153-17.947 1.9136-6.3951 3.6706-13.502 5.0797-21.414 1.0735-6.0914 2.0134-12.656 2.0644-19.15 0.0101-2.3403-0.0537-4.6003-0.42395-6.6626-0.13197-0.55087-0.2331-1.0277-0.33647-1.4667-0.18046-0.76628-0.3461-1.3176-0.61352-1.5717-0.0948-0.0726-0.0377-0.0762 0.17412 0.0982v0.00001c0.2856 0.13577 0.48317 0.19669 0.68133 0.18525 0.0711-0.2938-0.59161 0.37217-1.9012 1.0564-2.0382 1.4434-3.9195 3.5626-5.8315 5.7787-3.0794 3.6306-5.889 7.5996-8.4528 11.355-15.979 23.435-24.731 41.37-27.122 40.193z"/>
		<path id="path4609" d="m311.62 590.67c-1.0487-0.97668 14.475-22.304 41.96-49.026 4.6312-4.5036 9.7671-9.286 15.305-13.869 3.4528-2.8674 7.2582-5.833 11.508-8.4277 2.2403-1.4673 5.1678-3.0338 8.9135-3.7834 1.1628-0.26892 2.6991-0.26138 4.5269 0.1857 1.5962 0.46875 2.9948 1.4234 4.0813 2.8156 1.0197 1.4943 1.5522 2.8945 1.6848 4.0772 0.15061 0.97985 0.2053 1.8907 0.19159 2.7235-0.007 0.44701-0.0344 0.87056-0.0766 1.2692-0.30908 3.2348-1.1089 6.1322-1.9745 8.6814-1.1948 3.6245-2.6213 7.0632-4.0895 10.309-1.8382 4.0722-3.8075 7.9882-5.7911 11.716-4.9633 9.3295-10.222 17.926-15.148 25.454-6.2722 9.5876-12.082 17.542-17.242 23.994-9.2706 11.6-15.903 17.452-16.829 16.614-0.74456-0.67365 4.182-7.8465 11.89-20.124 4.3949-7.0116 9.3035-15.016 15.005-24.899 4.4065-7.6414 9.2367-16.304 13.796-25.438 1.8254-3.6578 3.6354-7.4439 5.3071-11.305 1.3382-3.0978 2.6097-6.2412 3.6208-9.4031 0.71894-2.3259 1.3583-4.4898 1.494-6.4518 0.012-0.23531 0.0237-0.44976 0.0307-0.6409 0.0129-0.3564 0.009-0.63193-0.039-0.81906-0.0992-0.18328-0.0101-0.14672 0.18079 0.24522 0.34551 0.40578 0.67207 0.64123 1.0898 0.76317 0.32474 0.01 0.31491 0.0872-0.0587 0.0715-1.4635 0.12373-3.2702 1.243-5.4674 2.4376-3.6351 2.1354-7.1345 4.7843-10.53 7.4505-5.3608 4.2234-10.518 8.7209-15.245 12.936-28.17 25.127-46.25 44.159-48.092 42.443z"/>
		<path id="path4613" d="m349.9 629.68c-0.0264-0.99175 9.0941-2.2741 24.807-3.321 15.029-1.0013 38.72-1.9316 64.395-0.93961 8.294 0.31851 17.304 0.85578 26.408 2.083 5.1715 0.67293 10.828 1.5876 16.453 3.5967 1.643 0.56744 3.464 1.3791 5.3123 2.6133 1.2647 0.73224 2.6276 2.1128 3.7656 4.2388 0.42822 0.91097 0.68313 1.9311 0.74472 3.0347v0.00003c0.0328 1.1016-0.11603 2.1086-0.42371 2.9966v0.00003c-0.78137 2.038-1.8216 3.503-2.8589 4.4313-1.3709 1.3584-2.7863 2.4129-4.1318 3.2572-0.0299 0.0191-0.0597 0.0382-0.0896 0.0572-1.7237 1.0981-3.461 2.0271-5.157 2.847-4.568 2.2131-9.2136 3.945-13.701 5.45-12.571 4.2283-25.192 7.179-36.724 9.4833-14.933 2.9909-28.501 4.9042-40.701 6.025-6.7555 0.62112-12.838 0.96783-18.505 1.0608-5.9449 0.0996-10.919-0.0813-15.474-0.58418-4.735-0.50524-8.1486-1.2601-11.088-2.5126-1.4825-0.6216-2.5987-1.3361-3.4254-2.1231-1.6628-1.5361-1.3206-2.771-1.1457-2.8334 0.24419-0.0872 0.88848 0.6388 2.2444 1.272 0.85966 0.38879 1.7561 0.63173 3.1885 0.91212 2.9517 0.55972 5.7064 0.65902 10.453 0.60661 4.4417-0.0708 9.0455-0.38152 14.886-0.96735 5.5226-0.55655 11.346-1.3037 17.959-2.3059 11.931-1.8089 25.057-4.2304 39.669-7.5833 11.257-2.5882 23.512-5.6848 35.458-9.8322 4.2809-1.4906 8.5416-3.0936 12.527-5.0506 1.4736-0.72537 2.8753-1.4686 4.1473-2.2871l0.066-0.0426c1.0064-0.6697 1.8558-1.2629 2.4392-1.8795 0.38336-0.50724 0.63324-0.67373 0.48346-0.54318v0.00001c-0.0509 0.11321-0.0659 0.30241-0.0694 0.59046v0.00001c0.0255 0.29444 0.0743 0.51665 0.16458 0.69345 0.27282 0.25374 0.0533 0.21896-0.36789-0.21665-0.72472-0.54498-1.802-0.98443-3.0686-1.4854-4.3928-1.6691-9.3959-2.4882-14.409-3.2708-8.6084-1.304-17.369-2.0189-25.519-2.5789-23.824-1.6315-50.244-2.2052-63.817-2.6724-15.692-0.54019-24.868-1.1643-24.896-2.2196z"/>
		<path id="path4617" d="m333.19 674.74c0.51566-0.86294 7.3786 2.0497 18.621 7.9781 10.799 5.6949 27.334 15.098 44.555 26.714 5.467 3.6854 11.336 7.817 17.002 12.449 3.135 2.5288 6.5582 5.459 9.5514 9.182 0.84765 1.0104 1.7534 2.3546 2.5179 4.1002 0.27756 0.62743 0.5088 1.4276 0.65532 2.3979 0.13133 0.80027 0.0866 1.7586-0.16431 2.8509-0.76516 2.2113-2.0165 3.7228-3.5435 4.4553-1.7146 0.8452-3.1875 1.201-4.2934 1.2403-1.6146 0.15494-3.0969 0.12457-4.4295 0.0107-0.20486-0.0159-0.40885-0.0332-0.612-0.0519-1.5284-0.1404-2.9986-0.35557-4.4064-0.60541-4.1975-0.7422-8.2268-1.7846-12.046-2.8903-10.597-3.06-20.642-6.8664-29.629-10.583-11.544-4.7686-21.618-9.5572-30.367-14.218-4.8128-2.5633-9.0257-4.9878-12.833-7.3833-3.9642-2.4921-7.1251-4.7147-9.8596-6.9652-1.3471-1.1079-2.4892-2.1475-3.488-3.1868-0.98562-1.0206-1.7537-1.9692-2.3505-2.928-0.60042-0.92388-0.93974-1.8287-1.0266-2.6549-0.0489-0.45359 0.0167-0.86096 0.13352-1.1738 0.27957-0.73071 0.73901-0.77877 0.85755-0.70149 0.18481 0.12048 0.14845 0.43265 0.31525 0.8241 0.0706 0.18245 0.16774 0.34623 0.32189 0.57509 0.31906 0.49512 0.67961 0.79395 1.4089 1.4565 0.72961 0.62499 1.5016 1.172 2.608 1.9082 1.1073 0.73047 2.2775 1.4351 3.7268 2.2622v0.00001c3.0022 1.7124 6.0736 3.2895 10.273 5.3226 3.9779 1.9227 8.1842 3.8481 13.127 6.0104 8.9686 3.9225 18.953 8.0106 30.507 12.3 8.9435 3.3168 18.838 6.8041 28.969 9.5979 3.6708 1.0095 7.3817 1.9496 11.069 2.582 1.2337 0.21067 2.4356 0.38868 3.5989 0.49398 0.15465 0.014 0.30851 0.0267 0.46158 0.038 1.0311 0.066 1.915 0.10685 2.6415 0.0193 0.55281-0.13194 0.76586-0.0875 0.50323-0.0439-0.46948 0.14967-0.82673 0.71799-1.2878 1.7662-0.0888 0.47234-0.12232 0.77834-0.0726 0.94448 0.0443 0.1768 0.036 0.20938 0.0119 0.0982-0.10727-0.38704-0.54444-0.94865-1.1077-1.7349-2.0951-2.756-5.0142-5.2595-7.9876-7.8238-5.221-4.4456-10.801-8.6028-16.031-12.419-33.868-24.697-59.305-39.863-57.901-42.214z"/>
		<path id="path4621" d="m299 701.8c1.1536-0.92977 17.056 13.516 34.727 38.746 2.9052 4.1453 5.9404 8.7486 8.6823 13.715 1.6687 2.9882 3.3614 6.3638 4.5738 10.168 0.39555 1.2236 0.73423 2.6193 0.91697 4.1844 0.15987 1.1023 0.13432 2.4784-0.2025 4.0766-0.25782 1.2843-0.96108 2.6288-2.1443 3.9176-0.26751 0.25029-0.53889 0.47967-0.81307 0.68825-0.98463 0.74904-2.0018 1.2271-3.0014 1.4451-1.4609 0.32596-2.7288 0.37545-3.7588 0.2454h-0.00001c-1.3257-0.13338-2.509-0.3919-3.5459-0.70664-2.7665-0.82902-5.2192-1.9686-7.3903-3.137-6.3008-3.3526-11.863-7.4303-16.676-11.323v-0.00001c-6.4114-5.1639-11.862-10.364-16.427-15.34-5.4444-5.9097-9.1757-10.954-11.792-15.878-1.4189-2.6473-2.2687-4.9298-2.6668-7.02-0.8319-3.8323 0.66245-5.5018 1.1146-5.3785 0.27576 0.0752 0.81802 1.8935 2.0516 4.2803 0.91517 1.6424 1.9708 3.1073 3.7557 5.3244 3.3632 4.1417 7.0629 7.872 12.964 13.199 4.8053 4.3152 10.3 8.8565 16.633 13.474v0.00001c4.7905 3.4794 10.053 7.0974 15.595 9.8894 1.9418 0.9655 3.8121 1.8363 5.6084 2.3258 0.66161 0.17602 1.2226 0.31127 1.6721 0.33758 0.36064-0.005 0.51434 0.0297 0.41545 0.012-0.13076-0.001-0.30626 0.10485-0.57693 0.31182-0.0754 0.0576-0.15804 0.123-0.24905 0.19591-0.33693 0.43828-0.50654 0.66082-0.48362 0.78504 0.0389 0.0441-0.005-0.20099-0.0118-0.6775-0.0511-0.64994-0.252-1.423-0.50423-2.3059-0.81442-2.7863-2.2113-5.6236-3.6728-8.4799-2.3836-4.6034-5.1126-9.0949-7.7169-13.254-6.6519-10.614-16.635-25.238-20.28-30.828-4.9775-7.6344-7.6124-12.335-6.7957-12.994z"/>
		<path id="path4625" d="m213.48 580.55c-1.413 0.76969-15.313-18.22-29.838-48.299-2.3819-4.9301-4.8429-10.336-6.9965-16.027-1.2967-3.3893-2.5892-7.141-3.3884-11.225-0.25574-1.274-0.44976-2.7137-0.47905-4.3081-0.0517-0.89471 0.0469-2.0121 0.38342-3.311 0.0619-0.23907 0.13187-0.48408 0.21033-0.73475 0.3537-1.2717 1.2939-2.5883 2.8384-3.7974 1.6286-0.98075 3.147-1.3828 4.4328-1.2827 1.5373 0.074 2.7663 0.3624 3.6746 0.7398h0.00001c1.2523 0.46924 2.338 1.0141 3.2734 1.5647 2.5702 1.498 4.8017 3.2013 6.7831 4.8498 5.8193 4.8071 10.957 10.099 15.393 14.896v0.00001c5.907 6.3747 11.134 12.605 15.434 18.016 5.086 6.3992 9.0202 11.832 11.792 16.088 1.5082 2.316 2.6108 4.1856 3.3581 5.694 0.39142 0.79039 0.6659 1.4396 0.83114 1.9772 0.23073 0.77692 0.24813 1.2427-0.0126 1.3879-0.19921 0.11096-0.66245-0.0302-1.2642-0.4588-0.43032-0.29373-0.99762-0.73968-1.6395-1.2907-1.1908-1.0214-2.8699-2.5942-4.765-4.451-3.4339-3.3633-8.3697-8.429-13.855-14.057-4.6706-4.7912-10.449-10.726-16.411-16.543l-0.00001-0.00001c-4.5804-4.4616-9.6834-9.3751-15.045-13.605-1.8654-1.4602-3.6912-2.8374-5.5321-3.8565-0.6673-0.36397-1.2451-0.66436-1.7424-0.82978 0 0.00001-0.00001 0-0.00001 0-0.40658-0.0994-0.55183-0.18315-0.42162-0.13074 0.21645 0.0841 0.6323-0.093 1.375-0.46564 0.63061-0.5818 0.95335-0.90811 0.93787-1.1292-0.003-0.0183-0.005-0.0281-0.006-0.0296-0.005-0.008 0.0147 0.2293-0.0248 0.66692-0.008 0.71855 0.12318 1.5764 0.29133 2.5534 0.56374 3.1535 1.666 6.4138 2.8122 9.6873 1.8941 5.3484 4.1046 10.647 6.2094 15.563 12.907 30.125 23.667 50.908 21.392 52.148z"/>
		<path id="path4629" d="m181 616.28c-0.97942 1.085-23.87-14.981-52.036-43.247-4.5376-4.5517-9.3595-9.6005-13.926-15.077-2.6811-3.1895-5.5059-6.7758-7.8559-10.935-0.72075-1.2556-1.4319-2.7294-1.9932-4.4498-0.425-1.1016-0.67962-2.6554-0.54677-4.6137 0.13248-1.6315 0.9128-3.2743 2.3562-4.7539 1.1699-0.95483 2.2926-1.5638 3.2995-1.8667 0.34916-0.10503 0.68394-0.17313 1.0015-0.20618 1.6016-0.26545 2.9928-0.26436 4.1332-0.12889h0.00001c1.5487 0.14993 2.9795 0.42349 4.2888 0.74499 3.5463 0.8625 6.848 2.0534 9.9032 3.2779 8.7867 3.502 17.044 7.7606 24.333 11.727h0.00001c9.5823 5.2065 18.317 10.467 25.666 15.139 8.6749 5.5147 15.509 10.258 20.622 14.159 2.7727 2.1153 4.845 3.8317 6.3978 5.2996 0.81173 0.76745 1.4174 1.4056 1.8583 1.9639 0.23716 0.30022 0.41441 0.56056 0.53644 0.79132 0.20593 0.39333 0.23928 0.65314 0.10963 0.78177-0.1138 0.11291-0.38224 0.11956-0.75881 0.0194-0.22726-0.0578-0.52385-0.1543-0.8584-0.28125-0.59533-0.22563-1.4567-0.5972-2.4088-1.041-1.7134-0.79777-4.4458-2.1621-7.3334-3.6537-4.7141-2.4342-13.86-7.301-21.927-11.561-7.5282-3.9748-16.645-8.7654-26.137-13.452h-0.00001c-7.3156-3.6078-15.45-7.5427-23.691-10.682-2.8991-1.0977-5.7826-2.1232-8.6191-2.7777-1.0426-0.23744-2.008-0.42942-2.8872-0.50049h-0.00001c-0.68957-0.0311-1.1658-0.0733-1.3812 0.002-0.0248 0.0313-0.0326 0.0428-0.0203 0.0364 0.0349-0.0182 0.23791-0.18673 0.67209-0.45954 0.52516-0.62818 0.78488-1.0516 0.77591-1.4444-0.0632-0.2306 0.0546-0.0508 0.14546 0.49714 0.21267 0.75234 0.65179 1.6148 1.1752 2.6038 1.7673 3.2683 4.2247 6.4209 6.7238 9.5661 4.1899 5.2314 8.7303 10.26 13.002 14.893 11.092 12.026 27.39 28.62 33.349 34.893 8.1922 8.6241 12.742 13.951 12.033 14.736z"/>
		<path id="path4633" d="m162.6 624.94c-0.004 1.0745-8.9074 1.9191-24.098 2.8304-13.213 0.79261-38.617 1.9778-61.603 4.2232-7.8384 0.76797-16.24 1.7081-24.451 3.2589-4.7868 0.9318-9.532 1.8904-13.588 3.6989-1.1712 0.54361-2.1523 1.0104-2.7669 1.5543-0.34487 0.41193-0.5425 0.46667-0.3203 0.22854 0.10314-0.4484 0.1351-0.68872 0.03846-0.91566-0.08028-0.008 0.1302 0.17764 0.46597 0.58677 0.04099 0.0499 0.08382 0.10319 0.12819 0.15979 1.455 1.6172 3.8785 2.8565 6.545 4.278 3.843 1.9474 7.9638 3.5471 12.097 5.0297 11.391 4.0734 23.095 7.1187 33.727 9.6482h0.000009c13.707 3.254 25.823 5.5895 36.754 7.3532 5.9964 0.96688 11.145 1.6817 16.048 2.2251h0.00001c5.1135 0.56216 8.8932 0.86181 12.661 0.92805 1.7764 0.0302 3.224 0.009 4.6202-0.0984 1.3516-0.11373 2.3043-0.22928 3.2298-0.48836l0.00001-0.00001c0.86938-0.28621 1.3419-0.42115 1.7232-0.77842 0.19732-0.16044 0.34305-0.34703 0.44467-0.52847 0.29903-0.51425 0.24965-0.89576 0.51015-0.97378 0.13286-0.0398 0.61993 0.19036 0.72007 1.1245h0.00001c0.0337 0.36502-0.0136 0.82833-0.23328 1.3106-0.39343 0.81885-1.1266 1.5988-2.1262 2.151v0c-1.0397 0.62146-2.2387 1.0977-3.6606 1.4914-1.4957 0.42212-3.1172 0.73922-4.971 0.99021l-0.00001 0.00001c-3.8658 0.5258-8.0788 0.72118-13.263 0.66502h-0.00001c-5.037-0.0516-10.47-0.34663-16.596-0.90239-11.191-1.0142-23.78-2.7925-37.803-5.6272h-0.00001c-10.922-2.2022-22.998-5.0578-35.042-9.1866-4.3538-1.488-8.8712-3.211-13.311-5.4156-2.9428-1.3903-6.258-3.267-9.2498-6.2301-0.11314-0.10565-0.2262-0.21702-0.33885-0.33418-0.92325-0.96011-1.8144-2.3028-2.5085-4.0509-0.66134-1.8272-0.66956-3.856 0.0212-5.8879 0.93936-2.1629 2.1821-3.6554 3.427-4.5259 1.7468-1.3581 3.4971-2.2775 5.0853-2.9239 5.3732-2.2581 10.826-3.3675 15.792-4.1956 8.7505-1.5099 17.433-2.2933 25.432-2.8304 24.775-1.6709 47.728-1.2947 62.322-0.63373 15.253 0.69078 24.143 1.7837 24.139 2.7918z"/>
		<path id="path4637" d="m179.92 675.82c1.7383 1.9945-18.504 19.976-44.912 47.566-4.2225 4.4132-8.7155 9.2022-12.885 14.184-2.4734 2.9781-4.9079 5.9569-6.694 9.0509-0.5228 0.92672-0.96003 1.722-1.1746 2.4069v0.00001c-0.0857 0.51788-0.19852 0.59537-0.13137 0.24837 0.009-0.53249-0.3202-1.081-0.9904-1.8254-0.7208-0.41801-0.9548-0.6236-0.86439-0.48906 0.00002 0 0.0113 0.003 0.0113 0.003 0.19757 0.0542 0.64133-0.008 1.2956-0.066 0.85175-0.10719 1.782-0.33034 2.7855-0.59891 2.7412-0.74172 5.5143-1.8292 8.2987-2.9874 7.9443-3.3219 15.684-7.3768 22.684-11.166 9.2262-5.0017 17.457-9.8322 24.7-14.248 4.1036-2.5026 7.6653-4.738 11.026-6.9081 3.6302-2.3458 6.3572-4.1685 9.0488-6.0537 3.0144-2.1238 4.4271-3.1488 6.2622-4.6662 0.90491-0.75534 1.3089-1.0942 1.8661-1.6372 0.60219-0.65305 1.1907-1.1606 1.3251-1.1606 0.28354 0 0.68945 0.70798 0.22995 2.0544-0.23629 0.77566-0.64988 1.6218-1.2834 2.6067-1.2315 1.929-2.9077 3.9023-5.3849 6.3784-2.3318 2.3375-5.0484 4.7771-8.3706 7.518-3.1293 2.5825-6.6087 5.2728-10.536 8.1317-6.9748 5.0784-15.109 10.521-24.329 16-6.9894 4.16-14.879 8.5553-23.35 12.249-2.9371 1.2868-6.1084 2.5472-9.5202 3.5107-1.2529 0.35676-2.6233 0.67511-4.1112 0.88455-1.0568 0.17348-2.3621 0.24-3.8869 0.077-0.0297-0.003-0.0595-0.006-0.0893-0.01-1.159-0.0326-2.6584-0.60813-4.3302-1.845-1.529-1.4838-2.337-3.1438-2.4352-4.7996-0.0842-1.9634 0.20669-3.4687 0.6487-4.4764l0.00001-0.00001c0.59289-1.6398 1.3158-3.0291 2.0341-4.2008 2.3762-3.9435 5.1771-7.3311 7.8244-10.343 4.5414-5.2076 9.3095-10.005 13.794-14.33 27.925-26.95 50.46-42.187 51.445-41.057z"/>
		<path id="path4641" d="m216.73 707.21c0.86342 0.62393-1.5848 5.5844-6.2932 13.641-2.2834 3.9069-14.102 23.325-19.305 32.408-2.4321 4.2492-4.9878 8.826-7.192 13.477-1.309 2.8089-2.5651 5.5454-3.196 8.1712-0.17878 0.79326-0.32085 1.4242-0.30719 1.8714v0.00001c0.0717 0.34119-0.0156 0.28524-0.0898-0.0826-0.14938-0.37312-0.41355-0.68474-0.82171-0.9918-0.09-0.0677-0.18696-0.13516-0.29111-0.20294-0.55703-0.2009-0.74862-0.31211-0.67637-0.23614 0.54631 0.12851 1.6259-0.38995 3.1714-0.92388 2.0993-0.86129 4.2108-2.0345 6.3402-3.2754 5.9352-3.4778 11.73-7.6034 16.887-11.316 6.4818-4.6732 13.112-9.6719 18.13-13.42 6.1179-4.569 11.08-8.2272 14.813-10.748 1.9788-1.3365 3.5798-2.3309 4.7521-2.93 0.60191-0.3076 1.0923-0.51171 1.464-0.60561 0.18781-0.0475 0.34566-0.0668 0.4725-0.0572v0.00001c0.0638 0.005 0.11975 0.017 0.16779 0.0366 0.0241 0.01 0.0462 0.0216 0.0663 0.0352 0.0206 0.0139 0.039 0.0298 0.0553 0.0477s0.0305 0.0378 0.0424 0.0595c0.0117 0.0213 0.0213 0.0443 0.0289 0.0693 0.0151 0.0497 0.0219 0.10655 0.0206 0.17054-0.003 0.12742-0.0375 0.28298-0.10404 0.46592-0.13109 0.36186-0.38506 0.83-0.75689 1.3982-0.72506 1.1079-1.8955 2.5916-3.4767 4.4016-2.9402 3.3656-7.3463 7.9103-12.92 13.161-4.7996 4.5216-10.683 9.7767-17.259 15.101h-0.00001c-5.0499 4.0956-10.885 8.5895-17.306 12.557-2.2693 1.4097-4.7702 2.8299-7.5411 4.0259-1.6941 0.83446-4.0615 1.6298-7.0911 1.7438v-0.00001l-0.00001 0.00001c-1.1079 0.0706-2.5086-0.2284-4.1048-1.0015-0.27431-0.16151-0.5348-0.33373-0.78112-0.51608-1.117-0.82687-1.9386-1.8589-2.4404-3.0365-0.64087-1.6779-0.8402-3.1002-0.74054-4.1774v-0.00001c0.064-1.5806 0.31709-2.9522 0.63842-4.1051 1.0132-3.7721 2.5459-7.0941 4.0374-10.006 2.5351-5.0286 5.3733-9.7221 8.0865-13.962 16.878-26.399 32.262-42.157 33.52-41.248z"/>
		<path id="path4645" d="m249.2 737.53c2.758 0.10608 4.7538 6.497 4.455 14.265-0.29879 7.7685-2.7796 13.987-5.5376 13.881-2.758-0.10608-4.7538-6.497-4.455-14.265 0.29879-7.7685 2.7796-13.987 5.5376-13.881z"/>
		<path id="path4649" d="m257.86 740.77c2.76 0 5 4.6074 5 10.284 0 5.677-2.24 10.284-5 10.284s-5-4.6074-5-10.284c0-5.677 2.24-10.284 5-10.284z"/>
		<path id="path4653" d="m267.61 735.36c2.7505-0.2292 5.4677 5.4046 6.0653 12.576 0.59757 7.1709-1.1497 13.177-3.9002 13.406-2.7505 0.2292-5.4677-5.4046-6.0653-12.576-0.59757-7.1709 1.1497-13.177 3.9002-13.406z"/>
		<path id="path4657" d="m239.46 750.52c0-1.5605 2.9534-2.9548 7.5779-3.872 1.32-0.1856 1.8286-0.10448 1.1343-0.25017 2.4762-0.94709-4.02 0.98975 2.089-1.3875 1.121-0.26012 1.8394-0.33977 2.0776-0.33007 0.63817-0.0611 1.2406-0.0965 1.8131-0.12123 0.90334-0.0362 2.0144-0.0378 2.629-0.0684 0.9848-0.0351 1.9922-0.0532 3.0169-0.0532 1.9566 0 3.8498 0.0662 5.6436 0.18981 1.1246 0.0775 2.2101 0.17759 3.2477 0.2981 2.623-0.52476 1.6699 0.31283-2.0082 1.4213-1.2689 3.1753-1.6489 4.3366-1.0099 3.814-0.71176 0.14934-0.36727-1.564 1.1269-4.7794 3.3335-1.487 4.8759-1.6778 4.7271-0.95691 0.49826-0.56272-0.70435-0.0787-3.5092 1.0921-0.28998 2.9389-0.17178 2.5735 0.9403-0.1422 2.8704-1.0642 2.8763-0.93296 0.4745-0.60805v0.00001c-0.994 2.5892-1.2625 3.4243-0.74422 2.9672-0.55792 0.0731-0.23495-1.3811 0.95469-3.8393 2.6636-1.1732 3.819-1.2204 3.744-0.64554 0.40804-0.37291-0.48233 0.0725-2.4114 0.89555-0.75827 1.8319-0.91848 2.4106-0.52924 2.2144-0.16797 0.0136-0.0528-0.9356 0.36917-2.3534 0.28851-0.59203 1.4833-1.3021 2.5859-1.5786 1.6569 0.0566 1.7849 1.2504 1.7849 1.5982 0 0.1763-0.77529 1.6193-0.71851 1.6775 0.29921-0.0285 0.99949 0.0408 0.75907 0.50725 0.24545-1.0382 0.5085-1.6752 0.43966-1.2202 0.46989 0.14275 0.42503 1.1448-0.59973 3.2462-2.1751 1.0769-3.5386 1.397-3.4939 0.89555-0.43342 0.47554 0.2819 0.24896 2.6614-0.64553 0.93182-2.2058 1.3886-3.1941 0.95467-2.7568 0.62029-0.0978 0.52626 1.1798-0.74421 4.0498v0.00002c-2.7732 0.80582-3.9177 0.51435-1.6906-0.60805 1.0758-1.913 1.789-1.5426 0.94029 2.0229-3.0649 1.4336-4.7259 1.7731-4.5918 1.0921-0.50959 0.61478 0.58652 0.25699 3.6445-0.95691 1.2306-2.954 1.7215-4.2102 1.1269-3.6969 0.74589-0.16156 0.53139 1.4468-1.0099 4.8966-4.349 1.6809-5.8786 1.9085-4.1733 1.4213-1.0376 0.12051-2.1231 0.22059-3.2477 0.2981-1.7938 0.12363-3.687 0.18981-5.6436 0.18981-1.0247 0-2.0321-0.0181-3.0169-0.0532-1.1296-0.0357-2.096-0.14352-2.8463-0.22282-1.9083-0.18025 0.39713 0.0296-1.4061-0.14053-0.49359 0.0245-0.48422-0.0686-0.0536-0.15638 1.0067-0.60414 0.27529 0.022-2.2412 0.77768-2.1985 0.21431-3.1085-0.0818-3.1959-0.25017-4.6246-0.91716-7.5779-2.3114-7.5779-3.872z"/>
		<path id="path4661" d="m239.46 763.51c-0.65026-2.6823 6.8243-6.7992 16.684-9.1895 9.86-2.3903 18.39-2.1533 19.04 0.529 0.65026 2.6823-6.8243 6.7992-16.684 9.1895-9.86 2.3903-18.39 2.1533-19.04-0.529z"/>
		<path id="path4665" d="m240.54 745.1c-0.55656-2.7033 7.2365-6.5948 17.395-8.6863 10.159-2.0915 18.855-1.595 19.412 1.1083 0.55656 2.7033-7.2365 6.5948-17.395 8.6863-10.159 2.0915-18.855 1.595-19.412-1.1083z"/>
		<path id="path4669" d="m230.8 765.67c-0.50864-2.7127 10.718-7.0968 25.06-9.7859s26.394-2.6699 26.903 0.0428c0.50864 2.7127-10.718 7.0968-25.06 9.7859s-26.394 2.6699-26.903-0.0428z"/>
		<path id="path4677" d="m244.87 764.59c2.7537 0.18634 2.8061 32.589 0.11705 72.328-2.6891 39.739-7.1064 71.839-9.8601 71.653-2.7537-0.18634-2.8061-32.589-0.11705-72.328 2.6891-39.739 7.1064-71.839 9.8601-71.653z"/>
		<path id="path4681" d="m249.2 763.51c2.7558 0.1531 3.2948 30.832 1.2033 68.479s-6.0255 68.077-8.7813 67.924c-2.7558-0.1531-3.2948-30.832-1.2033-68.479s6.0255-68.077 8.7813-67.924z"/>
		<path id="path4685" d="m256.78 763.51c2.7599 0.0236 4.7573 28.415 4.4586 63.373-0.29878 34.958-2.7812 63.311-5.5411 63.287-2.7599-0.0236-4.7573-28.415-4.4586-63.373 0.29878-34.958 2.7812-63.311 5.5411-63.287z"/>
		<path id="path4689" d="m261.11 760.26c2.752-0.2099 7.168 28.234 9.8571 63.491s2.638 64.042-0.11397 64.251c-2.752 0.2099-7.168-28.234-9.8571-63.491s-2.638-64.042 0.11397-64.251z"/>
		<path id="path4693" d="m266.53 757.01c2.7363-0.3606 9.0795 30.628 14.159 69.172 5.0794 38.544 6.981 70.118 4.2446 70.479-2.7363 0.3606-9.0795-30.628-14.159-69.172-5.0794-38.544-6.981-70.118-4.2446-70.479z"/>
		<path id="path4697" d="m292.51 890.17c-3.8436 0.60857-11.947-57.768-20.604-130.09 0.0772 0.28042 0.0315 0.11436 0.10873 0.39479 19.39 70.402 34.033 127.72 30.239 128.61-3.7974 0.89352-16.223-56.862-30.198-128.24-0.0813-0.41537 0.003 0.0146-0.0784-0.40075 14.059 71.173 24.38 129.12 20.533 129.73z"/>
		<path id="path4701" d="m254.62 767.84c2.7599 0.023 4.7573 29.141 4.4586 64.995-0.29879 35.854-2.7812 64.935-5.5411 64.912s-4.7573-29.141-4.4586-64.995c0.29879-35.854 2.7812-64.935 5.5411-64.912z"/>
		<path id="path4705" d="m262.19 774.33c2.7595-0.0521 5.4841 25.61 6.0817 57.282 0.59758 31.671-1.157 57.418-3.9165 57.47-2.7595 0.0521-5.4841-25.61-6.0817-57.282-0.59758-31.671 1.157-57.418 3.9165-57.47z"/>
		<path id="path4709" d="m239.46 763.51c2.7592 0.0678 4.271 29.707 3.3746 66.159-0.89636 36.452-3.8632 65.981-6.6223 65.913-2.7592-0.0679-4.271-29.707-3.3746-66.159 0.89636-36.452 3.8632-65.981 6.6223-65.913z"/>
		<path id="path4713" d="m276.27 761.34c2.713-0.5073 10.492 28.908 17.364 65.659 6.8721 36.751 10.248 66.989 7.5347 67.497-2.713 0.5073-10.492-28.908-17.364-65.659-6.8721-36.751-10.248-66.989-7.5347-67.497z"/>
	</g>
</svg>
