<?xml version="1.0" encoding="UTF-8" standalone="no"?>
<svg id="svg2" xmlns:rdf="http://www.w3.org/1999/02/22-rdf-syntax-ns#" xmlns="http://www.w3.org/2000/svg" viewBox="0 0 250 291.87675" height="82.374mm" width="70.556mm" version="1.1" xmlns:cc="http://creativecommons.org/ns#" xmlns:dc="http://purl.org/dc/elements/1.1/">
	<g id="layer1" transform="translate(-26.331 -744.82)">
		<path id="path3342" d="m124.99 0a21.403 19.942 0 0 0 -21.4 19.941 21.403 19.942 0 0 0 21.4 19.942 21.403 19.942 0 0 0 21.4 -19.942 21.403 19.942 0 0 0 -21.4 -19.941zm0.01 5.916a13.976 10.634 0 0 1 13.98 10.635 13.976 10.634 0 0 1 -13.98 10.635 13.976 10.634 0 0 1 -13.98 -10.635 13.976 10.634 0 0 1 13.98 -10.635z" transform="translate(26.331 744.82)"/>
		<g id="g8086">
			<path id="path3344" d="m93.65 21.035c-4.761 0-8.593 3.833-8.593 8.594v13.074a125 92.958 0 0 0 -85.057 87.967 125 92.958 0 0 0 85.057 87.99v13.41c0 4.76 3.832 8.6 8.593 8.6h62.7c4.76 0 8.59-3.84 8.59-8.6v-13.44a125 92.958 0 0 0 85.06 -87.96 125 92.958 0 0 0 -85.06 -87.996v-13.045c0-4.761-3.83-8.594-8.59-8.594h-62.7zm-4.259 23.262c0.087 0.008 0.153 0.034 0.195 0.08 0.837 0.917-4.373 6.636-12.803 16.486-7.892 9.223-20.543 24.272-28.566 42.057-3.074 6.79-5.585 14.28-6.51 22.06-0.214 1.76-0.348 3.55-0.398 5.34-0.134 4.78 0.327 9.48 1.324 13.94 1.401 6.37 3.913 12.39 6.842 17.85 3.397 6.32 7.53 12.12 11.494 17.2 7.201 9.23 17.614 20.42 21.711 25.07 5.355 6.07 8.17 9.78 7.558 10.43-0.579 0.61-4.508-1.9-10.861-6.96-5.831-4.64-15.739-13.06-24.793-23.2-4.52-5.06-9.239-11.05-13.285-17.94-3.5-5.95-6.514-12.75-8.305-20.22-1.251-5.28-1.839-10.81-1.682-16.45 0.06-2.12 0.223-4.21 0.487-6.29 1.181-9.13 4.136-17.55 7.781-24.924 9.569-19.289 23.539-33.714 32.889-42.166 9.205-8.321 15.608-12.479 16.922-12.363zm13.799 1.074c0.07-0.002 0.13 0.011 0.18 0.043 2.52 1.627-10.248 19.101-17.36 48.471-2.599 10.685-4.202 22.665-3.949 35.485 0.04 2.07 0.128 4.13 0.263 6.16 0.938 14.41 4.165 27.9 7.574 39.17 7.169 23.66 14.802 38.58 12.712 39.65-1.07 0.54-11.518-12.89-20.715-36.91-4.405-11.49-8.351-25.61-9.52-41.21-0.162-2.2-0.267-4.42-0.311-6.67-0.271-13.87 1.798-26.76 5.168-38.06 4.533-15.138 11.183-27.209 16.27-34.885 4.867-7.344 8.588-11.207 9.688-11.244zm22.54 0.369c2.88 0.06 4.02 38.084 3.57 84.82-0.03 2.4-0.05 4.78-0.08 7.13-0.26 20.3-0.86 42.47-1.41 55.01-0.6 13.95-1.37 22.52-2.69 22.58-1.29 0.05-2.91-8.44-4.09-22.44-1.22-14.5-1.84-32.97-1.78-55.22 0.01-2.36 0.02-4.75 0.05-7.16 0.45-46.86 3.79-84.774 6.43-84.72zm33.92 0.196c1.16-0.198 6.68 3.119 14.72 9.976 8.23 7.027 20.33 18.917 29.89 35.01 6.39 10.748 11.61 24.118 12.57 38.858 0.16 2.43 0.2 4.84 0.12 7.25-0.71 16.84-7.23 31.64-14.67 42.77-8.7 13.03-18.94 22.55-25.83 28.11-7.17 5.79-11.85 8.31-12.4 7.65-0.65-0.76 2.89-4.63 8.88-11.36 5.61-6.31 14.74-16.66 21.97-29.02 6.18-10.6 11.69-24.07 12.08-38.5 0.07-2.07 0.04-4.16-0.09-6.26-0.8-12.75-5.3-24.86-10.68-34.959-8.07-15.118-18.93-27.725-25.79-35.537-7.26-8.275-11.69-13.049-10.95-13.903 0.04-0.044 0.1-0.072 0.18-0.085zm-16.67 1.068c1.1-0.035 5.2 3.642 10.74 10.766 5.78 7.413 13.6 19.273 19.36 34.355 4.15 10.915 7.13 23.625 7.49 37.385 0.07 2.39 0.05 4.76-0.05 7.11-0.67 15.66-4.75 29.73-9.66 41.11-10.54 24.42-23.35 36.48-24.19 35.9-2.08-1.41 7.98-15.31 16.29-39 3.84-10.99 7.14-24.17 7.6-38.38 0.07-2.14 0.08-4.3 0.03-6.48-0.33-12.52-2.78-24.28-6.13-34.604-4.59-14.196-11.07-26.441-15.35-34.375-4.45-8.245-7.18-13.075-6.32-13.73 0.05-0.036 0.11-0.055 0.19-0.057z" transform="translate(26.331 744.82)"/>
		</g>
		<g>
			<rect id="rect3355" height="52.964" width="7.8997" y="983.3" x="126.59"/>
			<g>
				<rect id="rect8067" ry="0" height="52.471" width="7.4335" y="983.79" x="118.59"/>
				<rect id="rect8069" height="51.16" width="8.308" y="984.66" x="142.21"/>
				<rect id="rect8071" ry="0" height="52.034" width="8.308" y="983.79" x="150.95"/>
				<rect id="rect8073" height="51.16" width="8.308" y="985.1" x="167.13"/>
				<rect id="rect8075" height="52.909" width="7.8707" y="983.35" x="176.31"/>
			</g>
		</g>
	</g>
</svg>
