<?xml version="1.0" encoding="UTF-8" standalone="no"?>
<svg id="svg3603" xmlns:rdf="http://www.w3.org/1999/02/22-rdf-syntax-ns#" xmlns="http://www.w3.org/2000/svg" viewBox="0 0 250.00001 320.12197" height="90.346mm" width="70.556mm" version="1.1" xmlns:cc="http://creativecommons.org/ns#" xmlns:dc="http://purl.org/dc/elements/1.1/">
	<g id="layer1" transform="translate(-30 -696.53)">
		<path id="rect4411" d="m10.67 0c-5.9117 0-10.67 4.7583-10.67 10.67v298.78c0 5.91 4.7583 10.67 10.67 10.67h228.66c5.91 0 10.67-4.76 10.67-10.67v-298.78c0-5.9117-4.76-10.67-10.67-10.67h-228.66zm-8.2891 90.336c6.0074 0.525 42.059 16.464 88.635 38.734a36.585 36.585 0 0 1 33.984 -23.12 36.585 36.585 0 0 1 34.04 23.19c44.82-20.85 79.37-35.747 87.21-37.253 0.55-0.349 0.97-0.499 1.14-0.354 0.17 0.146 0.07 0.582-0.37 1.371-5.42 4.727-39.34 22.086-85.86 44.256a36.585 36.585 0 0 1 0.43 5.37 36.585 36.585 0 0 1 -36.59 36.59 36.585 36.585 0 0 1 -36.586 -36.59 36.585 36.585 0 0 1 0.438 -5.33c-51.506-25.04-88.394-44.487-87.336-46.68 0.0803-0.168 0.3725-0.227 0.8649-0.184z" transform="translate(30 696.53)"/>
		<g fill-rule="evenodd">
			<path id="path4441" d="m140.52 820.76c1.7102-2.1663 6.3421-1.3634 10.339 1.792 3.997 3.1555 5.8528 7.4746 4.1426 9.6409s-6.3421 1.3634-10.339-1.792c-3.997-3.1555-5.8528-7.4746-4.1426-9.6409z"/>
			<path id="path4449" d="m169.48 818.48c1.8982 2.0036 0.19482 6.7029-3.8021 10.49-3.997 3.7866-8.7814 5.2336-10.68 3.23-1.8982-2.0036-0.19482-6.7029 3.8021-10.49 3.997-3.7866 8.7814-5.2336 10.68-3.23z"/>
			<path id="path4453" d="m141.28 834.48c0-2.76 6.3171-5 14.101-5 7.7835 0 14.101 2.24 14.101 5s-6.3171 5-14.101 5c-7.7835 0-14.101-2.24-14.101-5z"/>
			<path id="path4457" d="m139.76 845.92c0-2.76 6.8293-5 15.244-5 8.4146 0 15.244 2.24 15.244 5s-6.8293 5-15.244 5c-8.4146 0-15.244-2.24-15.244-5z"/>
			<path id="path4461" d="m154.62 834.48c2.759-0.0726 5.169 6.3563 5.3794 14.35 0.21037 7.9939-1.8581 14.541-4.6172 14.613-2.759 0.0726-5.169-6.3563-5.3794-14.35-0.21037-7.9939 1.8581-14.541 4.6172-14.613z"/>
		</g>
	</g>
</svg>
