<svg style="position: absolute; width: 0; height: 0; overflow: hidden;" version="1.1" xmlns="http://www.w3.org/2000/svg" xmlns:xlink="http://www.w3.org/1999/xlink">

	<symbol id="knot" viewBox="0 0 34 32">
		<title>Chinese knot - a traditional decrotive handicraft. The most typical knots are made of red threads. </title>
		<path d="M9.617 14.194c-0.104-0.102 2.748-3.108 7.148-7.516 2.122 1.997 4.558 4.303 7.163 6.779 0.102 0.097 0.203 0.193 0.305 0.289-2.656 2.555-5.103 4.898-7.234 6.925-4.547-3.797-7.472-6.371-7.382-6.478s3.085 2.343 7.369 6.038c2.014-1.942 4.288-4.119 6.772-6.485-0.095-0.090-0.19-0.179-0.285-0.27-2.435-2.304-4.699-4.456-6.7-6.37-4.127 4.296-7.052 7.188-7.156 7.086z"></path>
		<path d="M15.428 7.34c0.13-0.138 2.022 1.435 4.222 3.512s3.88 3.874 3.75 4.012c-0.13 0.138-2.022-1.435-4.222-3.512s-3.88-3.874-3.75-4.013z"></path>
		<path d="M14.385 8.16c0.131-0.137 2.023 1.453 4.223 3.55s3.879 3.911 3.748 4.049c-0.131 0.137-2.023-1.453-4.223-3.55s-3.879-3.911-3.748-4.049z"></path>
		<path d="M13.416 9.128c0.13-0.139 2.021 1.417 4.221 3.474s3.881 3.838 3.751 3.976c-0.13 0.139-2.021-1.417-4.221-3.474s-3.881-3.838-3.751-3.976z"></path>
		<path d="M12.597 10.097c0.129-0.139 2.036 1.416 4.257 3.473s3.918 3.838 3.789 3.978c-0.129 0.139-2.036-1.416-4.257-3.473s-3.918-3.838-3.789-3.978z"></path>
		<path d="M11.852 11.14c0.128-0.14 2.018 1.382 4.218 3.397s3.882 3.764 3.753 3.904c-0.128 0.14-2.018-1.382-4.218-3.397s-3.882-3.764-3.753-3.904z"></path>
		<path d="M11.032 11.959c0.126-0.142 2.014 1.328 4.214 3.281s3.883 3.654 3.757 3.796c-0.126 0.142-2.014-1.328-4.214-3.281s-3.883-3.654-3.757-3.796z"></path>
		<path d="M10.138 12.704c0.128-0.14 2.018 1.382 4.218 3.397s3.882 3.764 3.753 3.904c-0.128 0.14-2.018-1.382-4.218-3.397s-3.882-3.764-3.753-3.904z"></path>
		<path d="M17.737 7.117c0.136 0.132-1.472 2.009-3.59 4.188s-3.947 3.841-4.084 3.709c-0.136-0.132 1.472-2.009 3.59-4.188s3.947-3.841 4.084-3.709z"></path>
		<path d="M18.333 7.936c0.138 0.131-1.403 1.973-3.439 4.111s-3.799 3.768-3.937 3.637c-0.138-0.131 1.403-1.973 3.439-4.111s3.799-3.768 3.937-3.637z"></path>
		<path d="M19.078 8.756c0.137 0.132-1.387 1.941-3.402 4.038s-3.762 3.693-3.899 3.561c-0.137-0.132 1.387-1.941 3.402-4.038s3.762-3.693 3.899-3.561z"></path>
		<path d="M19.972 9.352c0.138 0.131-1.386 1.956-3.401 4.074s-3.762 3.731-3.9 3.6c-0.138-0.131 1.386-1.956 3.401-4.074s3.762-3.731 3.9-3.6z"></path>
		<path d="M20.717 10.171c0.139 0.13-1.384 1.987-3.399 4.146s-3.763 3.806-3.902 3.677c-0.139-0.13 1.384-1.987 3.399-4.146s3.763-3.806 3.902-3.677z"></path>
		<path d="M21.462 10.916c0.139 0.13-1.35 1.954-3.324 4.071s-3.689 3.732-3.828 3.602c-0.139-0.13 1.35-1.953 3.324-4.071s3.689-3.732 3.828-3.602z"></path>
		<path d="M22.207 11.587c0.14 0.128-1.315 1.951-3.247 4.069s-3.615 3.733-3.756 3.605c-0.14-0.128 1.315-1.951 3.247-4.069s3.615-3.733 3.756-3.605z"></path>
		<path d="M23.027 12.555c0.137 0.132-1.337 1.89-3.291 3.926s-3.65 3.581-3.787 3.45c-0.137-0.131 1.337-1.89 3.291-3.926s3.65-3.581 3.787-3.45z"></path>
		<path d="M15.577 7.936c-0.178-0.067-0.138-0.606 0.088-1.202s0.554-1.026 0.731-0.958c0.178 0.067 0.138 0.606-0.088 1.202s-0.554 1.026-0.731 0.958z"></path>
		<path d="M16.769 5.776c0.167-0.091 0.502 0.202 0.749 0.655s0.312 0.893 0.145 0.984c-0.167 0.091-0.502-0.202-0.749-0.655s-0.312-0.893-0.145-0.984z"></path>
		<path d="M15.502 6.595c-0.053-0.182 0.304-0.447 0.798-0.591s0.937-0.113 0.99 0.070c0.053 0.182-0.304 0.447-0.798 0.591s-0.937 0.113-0.99-0.070z"></path>
		<path d="M15.577 6.148c-0.048-0.184 0.229-0.416 0.62-0.519s0.747-0.037 0.795 0.146c0.048 0.184-0.23 0.416-0.62 0.519s-0.747 0.037-0.795-0.146z"></path>
		<path d="M16.992 5.776c0.114-0.152 0.34-0.175 0.504-0.052s0.206 0.347 0.092 0.499c-0.114 0.152-0.34 0.175-0.504 0.052s-0.206-0.347-0.092-0.499z"></path>
		<path d="M15.842 5.865c-0.057 0.008-0.154-0.245-0.253-0.704-0.093-0.432-0.207-1.155-0.182-1.957 0.104-0.97 0.471-2.113 1.235-3.205 0.006 0.011 0.013 0.021 0.019 0.032 0.711 1.182 1.106 2.337 1.266 3.34 0 0 0 0 0 0 0.048 0.53 0.036 0.981-0.025 1.378-0.069 0.442-0.19 0.733-0.35 0.927-0.167 0.122-0.266 0.169-0.293 0.143s0.021-0.125 0.124-0.274c0.083-0.22 0.102-0.409 0.103-0.83 0.002-0.373-0.034-0.772-0.119-1.271 0 0 0 0 0 0-0.089-0.923-0.282-1.994-0.723-3.082-0.004-0.010-0.008-0.020-0.012-0.029-0.471 0.979-0.626 2.024-0.652 2.912-0.080 0.706-0.061 1.478-0.061 1.881 0 0.463-0.014 0.731-0.076 0.739z"></path>
		<path d="M18.184 8.011c-0.078-0.038 0.438-1.667 1.694-3.83 0.214-0.368 0.458-0.762 0.738-1.148 0.178-0.246 0.381-0.503 0.624-0.74 0.137-0.14 0.319-0.29 0.564-0.394 0.083-0.036 0.186-0.059 0.306-0.061 0.105 0 0.211 0.027 0.311 0.082 0.099 0.059 0.174 0.13 0.225 0.206 0.047 0.068 0.082 0.135 0.109 0.199 0.008 0.019 0.015 0.038 0.021 0.056 0.072 0.213 0.096 0.418 0.101 0.6 0.010 0.253-0.005 0.498-0.031 0.73-0.032 0.29-0.081 0.572-0.139 0.841-0.146 0.678-0.349 1.301-0.572 1.854-0.287 0.715-0.6 1.295-0.922 1.769-0.629 0.933-1.212 1.269-1.265 1.204-0.042-0.052 0.404-0.51 0.893-1.428 0.256-0.485 0.503-1.047 0.742-1.749 0.183-0.54 0.353-1.14 0.474-1.78 0.048-0.254 0.088-0.516 0.113-0.779 0.020-0.212 0.031-0.424 0.021-0.63-0.010-0.154-0.023-0.293-0.064-0.403-0.003-0.009-0.007-0.017-0.010-0.025-0.011-0.027-0.020-0.047-0.030-0.058-0.009-0.009-0.012-0.015-0.004-0.007 0.012 0.005 0.016 0.007 0.020 0.006-0.001-0.003-0.019 0.004-0.049 0.012-0.106 0.033-0.217 0.135-0.345 0.248-0.204 0.19-0.388 0.416-0.563 0.643-0.271 0.353-0.52 0.725-0.744 1.073-1.326 2.056-2.054 3.588-2.217 3.51z"></path>
		<path d="M20.27 10.022c-0.050-0.040 0.22-0.488 0.756-1.211 0.513-0.692 1.361-1.756 2.407-2.816 0.364-0.37 0.775-0.759 1.229-1.122 0.29-0.232 0.616-0.467 0.986-0.654 0.221-0.118 0.494-0.221 0.814-0.237 0.116-0.005 0.241 0.012 0.369 0.056 0.115 0.042 0.221 0.108 0.31 0.194 0.090 0.090 0.157 0.189 0.203 0.29 0.004 0.008 0.007 0.016 0.011 0.023 0.047 0.107 0.077 0.213 0.096 0.314 0.050 0.275 0.044 0.539 0.018 0.779-0.033 0.317-0.097 0.621-0.174 0.908-0.094 0.35-0.208 0.685-0.333 1.003-0.306 0.783-0.674 1.482-1.055 2.088-0.479 0.765-0.96 1.353-1.439 1.811-0.293 0.281-0.563 0.489-0.811 0.644-0.506 0.317-0.839 0.354-0.855 0.313-0.020-0.052 0.265-0.19 0.681-0.549 0.209-0.181 0.431-0.401 0.683-0.694 0.413-0.48 0.82-1.058 1.247-1.818 0.336-0.599 0.663-1.278 0.935-2.027 0.11-0.304 0.211-0.619 0.292-0.941 0.066-0.266 0.121-0.536 0.146-0.805 0.017-0.208 0.024-0.407-0.012-0.583-0.013-0.063-0.028-0.119-0.049-0.165-0.002-0.003-0.003-0.007-0.005-0.010-0.020-0.040-0.040-0.072-0.061-0.090-0.017-0.017-0.040-0.032-0.063-0.040-0.028-0.012-0.070-0.016-0.119-0.016-0.155-0.005-0.335 0.073-0.529 0.161-0.308 0.148-0.601 0.354-0.881 0.566-0.433 0.329-0.838 0.693-1.207 1.039-1.023 0.961-2.004 2.026-2.556 2.611-0.614 0.651-0.982 1.020-1.037 0.976z"></path>
		<path d="M22.803 12.555c-0.007-0.061 0.619-0.204 1.722-0.361 1.054-0.15 2.731-0.338 4.582-0.359 0.662-0.008 1.382 0.007 2.117 0.079 0.485 0.047 0.998 0.121 1.51 0.264 0.321 0.087 0.666 0.214 0.985 0.438 0.112 0.079 0.221 0.178 0.317 0.304 0.080 0.105 0.143 0.231 0.18 0.374 0.032 0.136 0.036 0.274 0.013 0.405 0 0 0 0 0 0-0.026 0.141-0.074 0.268-0.135 0.379-0.024 0.044-0.050 0.086-0.077 0.126-0.142 0.217-0.317 0.392-0.492 0.535-0.28 0.235-0.582 0.424-0.881 0.586-0.377 0.204-0.763 0.373-1.144 0.516-0.981 0.368-1.959 0.588-2.868 0.712-1.225 0.169-2.319 0.161-3.257 0.052 0 0 0 0 0 0-2.066-0.237-3.118-0.942-3.094-0.995 0.045-0.101 1.156 0.422 3.133 0.53 0 0 0 0 0 0 0.909 0.049 1.952 0.010 3.125-0.188 0.87-0.147 1.799-0.376 2.72-0.737 0.358-0.14 0.715-0.3 1.056-0.489 0.272-0.151 0.536-0.317 0.765-0.513 0.143-0.125 0.274-0.251 0.361-0.385 0.016-0.025 0.031-0.051 0.044-0.077 0.032-0.062 0.056-0.119 0.063-0.17 0 0 0 0 0 0 0.007-0.044 0.007-0.088-0.002-0.124-0.008-0.039-0.031-0.083-0.062-0.127-0.039-0.055-0.099-0.107-0.168-0.16-0.208-0.157-0.484-0.254-0.771-0.342-0.452-0.134-0.928-0.208-1.392-0.263-0.701-0.082-1.401-0.113-2.050-0.126-1.773-0.036-3.532 0.060-4.546 0.109-1.107 0.053-1.748 0.075-1.756 0.007z"></path>
		<path d="M22.402 15.686c0.010-0.019 2.008 0.671 4.878 2.446 0 0 0 0 0 0 0.444 0.275 0.929 0.591 1.396 0.953 0.279 0.215 0.575 0.463 0.834 0.768 0.083 0.097 0.165 0.209 0.234 0.339 0 0 0 0 0 0 0.052 0.092 0.095 0.206 0.115 0.343 0 0 0 0 0 0 0.016 0.11 0.001 0.232-0.051 0.354 0 0 0 0 0 0-0.056 0.116-0.134 0.206-0.221 0.267-0.101 0.072-0.204 0.12-0.3 0.15 0 0 0 0 0 0-0.119 0.039-0.237 0.063-0.349 0.079-0.29 0.039-0.575 0.038-0.853 0.021-0.346-0.020-0.691-0.065-1.037-0.124-0.387-0.066-0.774-0.149-1.163-0.247-0.806-0.203-1.623-0.466-2.434-0.8-0.543-0.222-1.094-0.479-1.622-0.794-0.167-0.1-0.33-0.205-0.49-0.316-0.27-0.188-0.532-0.399-0.766-0.65-0.090-0.253-0.163-0.548-0.174-0.891 0.997 1.256 1.878 2.414 2.657 3.625 0.229 0.416 0.44 0.826 0.624 1.247 0.126 0.285 0.241 0.578 0.317 0.89 0.026 0.106 0.046 0.219 0.054 0.341 0 0 0 0 0 0 0.007 0.087 0.003 0.189-0.023 0.299-0.018 0.086-0.065 0.178-0.142 0.265 0 0 0 0 0 0-0.079 0.078-0.168 0.126-0.26 0.147-0.104 0.022-0.195 0.023-0.272 0.010 0 0 0 0 0 0-0.099-0.014-0.187-0.038-0.266-0.067-0.214-0.077-0.403-0.181-0.572-0.285-0.23-0.141-0.444-0.294-0.642-0.445-0.245-0.187-0.475-0.379-0.689-0.566-0.531-0.465-0.987-0.923-1.367-1.334-0.479-0.519-0.815-0.939-1.076-1.324-0.148-0.219-0.249-0.393-0.322-0.553-0.123-0.263-0.12-0.419-0.089-0.423 0.013-0.002 0.074 0.131 0.222 0.348 0.099 0.143 0.208 0.283 0.379 0.484 0.3 0.353 0.644 0.718 1.154 1.206 0.397 0.38 0.867 0.805 1.403 1.235 0.216 0.173 0.445 0.35 0.686 0.519 0.195 0.138 0.4 0.274 0.613 0.394 0.16 0.089 0.319 0.172 0.479 0.222 0.058 0.018 0.11 0.032 0.156 0.035 0 0 0 0 0 0 0.036 0.001 0.060 0.003 0.067-0.002 0-0.002-0.002 0-0.015 0.009 0 0 0 0 0 0-0.006 0.012-0.008 0.005-0.002-0.010 0.008-0.026 0.005-0.068 0.003-0.122 0 0 0 0 0 0-0.006-0.073-0.023-0.153-0.046-0.239-0.067-0.257-0.177-0.512-0.302-0.784-0.183-0.394-0.393-0.783-0.624-1.186-0.609-1.27-1.287-2.496-2.067-3.86 0.159 0.122 0.386 0.236 0.638 0.35 0.187 0.202 0.413 0.381 0.657 0.552 0.145 0.101 0.295 0.198 0.449 0.29 0.487 0.291 1.009 0.534 1.531 0.752 0.778 0.324 1.563 0.583 2.338 0.787 0.374 0.098 0.744 0.183 1.11 0.25 0.329 0.060 0.649 0.107 0.966 0.13 0.258 0.018 0.501 0.026 0.73-0.003 0.088-0.011 0.169-0.025 0.239-0.048 0 0 0 0 0 0 0.057-0.020 0.102-0.036 0.13-0.058 0.018-0.016 0.032-0.025 0.030-0.027 0 0 0 0 0 0 0.003 0.002 0.003-0.012 0.004-0.031 0 0 0 0 0 0 0-0.033-0.020-0.080-0.046-0.137 0 0 0 0 0 0-0.038-0.079-0.095-0.158-0.16-0.24-0.204-0.259-0.467-0.488-0.728-0.704-0.433-0.357-0.894-0.68-1.32-0.966 0 0 0 0 0 0-2.764-1.857-4.685-2.712-4.605-2.871z"></path>
		<path d="M15.623 7.023c-0.023 0.017-0.263-0.277-0.715-0.834-0.383-0.472-1.18-1.465-2.043-2.349-0.262-0.269-0.56-0.561-0.886-0.815-0.187-0.144-0.383-0.288-0.592-0.361-0.063-0.021-0.122-0.038-0.173-0.036-0.036 0.001-0.069 0.006-0.088 0.019-0.019 0.009-0.039 0.031-0.056 0.057 0 0 0 0 0 0-0.022 0.033-0.037 0.079-0.051 0.133-0.037 0.148-0.031 0.315-0.017 0.498 0.020 0.234 0.065 0.471 0.123 0.717 0.136 0.579 0.336 1.158 0.583 1.767 0.235 0.578 0.513 1.173 0.846 1.752 0.138 0.239 0.285 0.477 0.448 0.702 0.129 0.178 0.264 0.349 0.416 0.492 0.058 0.055 0.116 0.104 0.175 0.142 0.048 0.030 0.091 0.055 0.13 0.065 0.029 0.007 0.052 0.011 0.062 0.007 0.056 0.069 0.118 0.13 0.18 0.188-0.112 0.132-0.224 0.266-0.337 0.4-1.443-0.985-3.109-2.095-4.855-3.033-0.476-0.263-0.967-0.518-1.474-0.726-0.315-0.128-0.626-0.245-0.933-0.286-0.096-0.012-0.183-0.019-0.256-0.009-0.052 0.010-0.091 0.017-0.107 0.031-0.010 0.006-0.020 0.017-0.024 0.027 0 0 0 0 0 0-0.010 0.014-0.013 0.049-0.017 0.094 0 0 0 0 0 0-0.003 0.058 0.008 0.127 0.024 0.203 0.021 0.093 0.053 0.189 0.091 0.288 0 0 0 0 0 0 0.097 0.25 0.229 0.494 0.376 0.742 0.178 0.298 0.375 0.587 0.587 0.875 0.231 0.316 0.477 0.625 0.735 0.93 0.513 0.608 1.068 1.197 1.668 1.746 0.26 0.238 0.529 0.468 0.809 0.68 0.228 0.172 0.458 0.332 0.698 0.458 0 0 0 0 0 0 0.094 0.049 0.185 0.092 0.275 0.124 0.074 0.025 0.139 0.044 0.196 0.048 0 0 0 0 0 0 0.044 0.001 0.075 0.003 0.086-0.004 0.044 0.089 0.091 0.176 0.132 0.264-1.319 0.019-2.67 0.061-4.030 0.148-1.020-0.005-2.055 0.012-3.088 0.079-0.713 0.047-1.427 0.114-2.125 0.247-0.442 0.086-0.872 0.183-1.245 0.363-0.056 0.027-0.11 0.055-0.16 0.084-0.056 0.033-0.107 0.067-0.152 0.105-0.060 0.054-0.109 0.103-0.129 0.149-0.017 0.033-0.026 0.072-0.023 0.104-0.001 0.039 0.018 0.090 0.045 0.149 0 0 0 0 0 0 0.035 0.072 0.091 0.145 0.158 0.222 0 0 0 0 0 0 0.082 0.092 0.178 0.178 0.283 0.263 0 0 0 0 0 0 0.265 0.214 0.568 0.394 0.883 0.563 0.386 0.206 0.788 0.385 1.197 0.549 0.458 0.183 0.923 0.344 1.391 0.487 0.965 0.294 1.934 0.516 2.906 0.636 0 0 0 0 0 0 0.433 0.053 0.861 0.086 1.283 0.080 0.351-0.006 0.689-0.031 1.002-0.114 0.126-0.034 0.245-0.074 0.35-0.127 0.090-0.046 0.17-0.097 0.229-0.157 0.054-0.053 0.097-0.114 0.123-0.176 0.122-0.026 0.227-0.067 0.32-0.112-1.191 1.249-2.294 2.442-3.306 3.718-0.349 0.394-0.679 0.785-0.976 1.194-0.198 0.274-0.379 0.54-0.506 0.819 0 0 0 0 0 0-0.042 0.092-0.076 0.179-0.095 0.261 0 0 0 0 0 0-0.012 0.061-0.022 0.11-0.016 0.144 0.004 0.021 0.006 0.035 0.008 0.033 0 0 0 0 0 0-0.003 0.001 0.008 0.007 0.023 0.016 0 0 0 0 0 0 0.023 0.014 0.064 0.020 0.115 0.028 0 0 0 0 0 0 0.064 0.008 0.137 0.006 0.215 0 0.209-0.016 0.425-0.069 0.645-0.132 0 0 0 0 0 0 0.282-0.082 0.561-0.184 0.836-0.295 0.322-0.13 0.638-0.273 0.948-0.422 0.688-0.332 1.346-0.695 1.97-1.076 0.591-0.361 1.144-0.726 1.654-1.131 0.198-0.158 0.384-0.315 0.549-0.485 0 0 0 0 0 0 0.192-0.082 0.367-0.148 0.487-0.221-0.415 0.774-0.795 1.502-1.154 2.231-0.334 0.544-0.636 1.064-0.904 1.589-0.194 0.381-0.364 0.744-0.489 1.117-0.078 0.241-0.144 0.461-0.136 0.671 0.003 0.065 0.009 0.123 0.028 0.166 0.014 0.032 0.031 0.060 0.052 0.075 0 0 0 0 0 0 0.020 0.018 0.053 0.031 0.091 0.041 0.048 0.012 0.106 0.011 0.169 0.006 0.174-0.014 0.354-0.078 0.53-0.149 0.241-0.098 0.472-0.221 0.69-0.347 0.587-0.339 1.12-0.73 1.565-1.078 0.579-0.453 1.032-0.857 1.411-1.232 0 0 0 0 0 0 0.201-0.199 0.361-0.369 0.502-0.54 0.133-0.161 0.223-0.28 0.289-0.416 0.025-0.052 0.042-0.096 0.047-0.139 0.002-0.017 0.002-0.033-0.001-0.047-0.003-0.013-0.007-0.024-0.014-0.033-0.007-0.011-0.018-0.020-0.030-0.027-0.017-0.010-0.037-0.016-0.055-0.021-0.126-0.031-0.192 0.001-0.196-0.023 0 0.001 0.060-0.052 0.206-0.043 0.023 0.002 0.051 0.006 0.079 0.017 0.021 0.008 0.042 0.021 0.061 0.041 0.016 0.018 0.029 0.039 0.037 0.063s0.012 0.051 0.011 0.076c-0.001 0.061-0.016 0.12-0.039 0.179-0.058 0.154-0.147 0.296-0.271 0.467-0.134 0.185-0.289 0.371-0.482 0.583 0 0 0 0 0 0-0.364 0.399-0.81 0.831-1.379 1.31-0.439 0.369-0.97 0.784-1.568 1.152-0.222 0.137-0.463 0.273-0.723 0.387-0.186 0.083-0.397 0.161-0.63 0.19-0.086 0.011-0.181 0.012-0.281-0.006-0.085-0.015-0.172-0.050-0.253-0.11 0 0 0 0 0 0-0.079-0.063-0.137-0.141-0.173-0.227-0.042-0.103-0.060-0.206-0.063-0.301-0.010-0.288 0.057-0.558 0.139-0.811 0.127-0.404 0.298-0.791 0.49-1.184 0.265-0.545 0.564-1.080 0.892-1.636 0.481-0.668 1.003-1.335 1.572-2.025-0.025 0.243-0.085 0.439-0.138 0.61 0 0 0 0 0 0-0.186 0.195-0.386 0.37-0.591 0.537-0.528 0.431-1.095 0.816-1.694 1.19-0.634 0.396-1.303 0.776-2.006 1.124-0.317 0.157-0.643 0.308-0.978 0.447-0.285 0.119-0.582 0.231-0.889 0.323 0 0 0 0 0 0-0.236 0.072-0.49 0.135-0.76 0.16-0.103 0.010-0.213 0.013-0.331 0.001 0 0 0 0 0 0-0.093-0.008-0.197-0.032-0.306-0.080 0 0 0 0 0 0-0.095-0.042-0.184-0.112-0.258-0.21 0 0 0 0 0 0-0.072-0.105-0.11-0.216-0.119-0.321-0.012-0.13 0.001-0.247 0.027-0.347 0 0 0 0 0 0 0.033-0.137 0.079-0.261 0.131-0.375 0 0 0 0 0 0 0.154-0.34 0.354-0.643 0.56-0.928 0.312-0.435 0.652-0.845 1.005-1.248 1.198-1.232 2.494-2.371 3.882-3.544 0.095 0.2 0.159 0.406 0.187 0.607-0.064 0.152-0.156 0.286-0.269 0.397-0.122 0.118-0.257 0.209-0.394 0.277-0.158 0.079-0.32 0.136-0.479 0.178-0.389 0.102-0.78 0.136-1.161 0.141-0.462 0.007-0.92-0.025-1.374-0.080 0 0 0 0 0 0-1.018-0.123-2.026-0.35-3.023-0.652-0.485-0.147-0.968-0.313-1.446-0.503-0.426-0.169-0.852-0.359-1.266-0.579-0.337-0.178-0.675-0.382-0.99-0.633 0 0 0 0 0 0-0.125-0.1-0.249-0.212-0.365-0.34 0 0 0 0 0 0-0.095-0.104-0.186-0.227-0.261-0.372 0 0 0 0 0 0-0.064-0.121-0.107-0.265-0.118-0.427-0.006-0.157 0.028-0.31 0.097-0.446 0.082-0.155 0.189-0.276 0.302-0.366 0.078-0.064 0.159-0.12 0.241-0.169 0.072-0.043 0.145-0.081 0.216-0.114 0.465-0.217 0.95-0.332 1.412-0.416 0.739-0.139 1.481-0.209 2.208-0.255 1.056-0.068 2.106-0.082 3.136-0.075 1.457 0.104 2.9 0.249 4.302 0.41-0.045 0.193-0.114 0.358-0.198 0.49-0.133 0.040-0.256 0.048-0.361 0.034 0 0 0 0 0 0-0.132-0.015-0.25-0.046-0.354-0.085-0.13-0.047-0.251-0.104-0.363-0.164 0 0 0 0 0 0-0.285-0.153-0.544-0.334-0.785-0.519-0.3-0.229-0.582-0.473-0.852-0.723-0.621-0.574-1.191-1.187-1.716-1.816-0.264-0.316-0.516-0.639-0.755-0.969-0.218-0.301-0.425-0.609-0.613-0.929-0.156-0.264-0.301-0.54-0.416-0.838 0 0 0 0 0 0-0.046-0.118-0.086-0.244-0.115-0.377-0.025-0.108-0.040-0.227-0.036-0.357 0 0 0 0 0 0 0.001-0.106 0.026-0.224 0.082-0.345 0 0 0 0 0 0 0.058-0.114 0.144-0.208 0.251-0.274 0.124-0.072 0.247-0.107 0.358-0.116 0.149-0.015 0.288-0.006 0.413 0.014 0.392 0.061 0.749 0.195 1.075 0.335 0.537 0.227 1.045 0.497 1.528 0.77 1.661 0.967 3.233 2.102 4.594 3.106 0.118 0.003 0.235 0.006 0.351 0.007-0.028 0.134-0.075 0.248-0.135 0.335-0.109 0.015-0.208 0.004-0.293-0.025-0.101-0.034-0.187-0.080-0.259-0.13-0.090-0.062-0.169-0.13-0.24-0.2-0.183-0.179-0.334-0.375-0.468-0.568-0.172-0.247-0.324-0.5-0.463-0.752-0.336-0.608-0.611-1.226-0.841-1.823-0.242-0.627-0.436-1.232-0.566-1.84-0.056-0.259-0.098-0.516-0.115-0.776-0.015-0.198-0.013-0.407 0.040-0.617 0.020-0.080 0.053-0.163 0.105-0.243 0 0 0 0 0 0 0.046-0.071 0.112-0.132 0.194-0.176 0.089-0.043 0.18-0.059 0.264-0.055 0.107 0.005 0.203 0.031 0.286 0.065 0.267 0.107 0.488 0.274 0.675 0.431 0.337 0.279 0.635 0.589 0.892 0.871 0.867 0.95 1.583 1.935 1.951 2.458 0.414 0.588 0.613 0.911 0.593 0.925z"></path>
		<path d="M18.262 8.038c-0.060-0.029 0.030-0.366 0.252-0.917 0.213-0.529 0.585-1.34 1.092-2.184 0.167-0.279 0.361-0.578 0.59-0.868 0.135-0.173 0.298-0.359 0.509-0.522 0.105-0.099 0.284-0.192 0.537-0.213 0.1-0.001 0.201 0.025 0.297 0.078 0 0 0 0 0 0 0.093 0.057 0.163 0.124 0.209 0.195 0.072 0.112 0.119 0.222 0.147 0.325 0.016 0.057 0.026 0.112 0.032 0.162 0.034 0.205 0.040 0.403 0.035 0.586-0.013 0.511-0.095 0.997-0.193 1.434-0.127 0.569-0.289 1.078-0.469 1.526-0.211 0.531-0.428 0.93-0.672 1.251-0.133 0.177-0.262 0.305-0.391 0.398 0 0 0 0 0 0-0.241 0.179-0.407 0.144-0.415 0.11-0.007-0.030 0.108-0.114 0.245-0.288 0 0 0 0 0 0 0.084-0.111 0.156-0.231 0.25-0.415 0.172-0.339 0.307-0.7 0.469-1.235 0.132-0.44 0.253-0.929 0.35-1.474 0.074-0.419 0.139-0.871 0.142-1.318 0.001-0.161-0.004-0.317-0.029-0.458-0.009-0.038-0.016-0.071-0.023-0.101-0.012-0.053-0.024-0.091-0.042-0.108-0.007-0.005-0.003-0.005 0.012 0.007 0 0 0 0 0 0 0.020 0.009 0.033 0.014 0.047 0.013 0.005-0.020-0.041 0.026-0.131 0.073-0.14 0.099-0.27 0.245-0.401 0.398-0.212 0.25-0.405 0.523-0.582 0.781-1.1 1.613-1.702 2.847-1.866 2.766z"></path>
		<path d="M20.692 10.122c-0.072-0.067 0.996-1.535 2.888-3.374 0.319-0.31 0.672-0.639 1.053-0.954 0.238-0.197 0.5-0.401 0.792-0.58 0.154-0.101 0.356-0.209 0.613-0.26 0.080-0.019 0.186-0.018 0.312 0.013 0.11 0.032 0.206 0.098 0.281 0.194 0.070 0.103 0.107 0.199 0.116 0.281 0.010 0.067 0.014 0.13 0.013 0.187-0 0.031-0.002 0.060-0.005 0.087-0.021 0.223-0.076 0.422-0.136 0.597-0.082 0.249-0.18 0.486-0.281 0.709-0.127 0.28-0.262 0.55-0.399 0.806-0.342 0.642-0.703 1.234-1.043 1.752-0.432 0.66-0.831 1.207-1.187 1.651-0.638 0.798-1.094 1.201-1.158 1.143-0.051-0.046 0.288-0.54 0.818-1.385 0.302-0.483 0.64-1.033 1.033-1.714 0.303-0.526 0.636-1.122 0.949-1.751 0.126-0.252 0.25-0.512 0.365-0.778 0.092-0.213 0.18-0.429 0.249-0.647 0.049-0.16 0.093-0.309 0.103-0.444 0.001-0.016 0.002-0.031 0.002-0.044 0.001-0.025 0.001-0.043-0.003-0.056-0.007-0.013-0.001-0.010 0.012 0.017 0.024 0.028 0.046 0.044 0.075 0.053 0.022 0.001 0.022 0.006-0.004 0.005-0.101 0.008-0.225 0.086-0.376 0.168-0.25 0.147-0.491 0.329-0.725 0.513-0.369 0.291-0.724 0.6-1.049 0.89-1.939 1.729-3.183 3.039-3.31 2.921z"></path>
		<path d="M23.326 12.807c-0.002-0.068 0.626-0.156 1.707-0.229 1.034-0.069 2.665-0.133 4.432-0.065 0.571 0.022 1.191 0.059 1.817 0.143 0.356 0.046 0.745 0.109 1.132 0.248 0.113 0.039 0.238 0.095 0.366 0.18 0.087 0.050 0.181 0.145 0.259 0.292 0.029 0.063 0.047 0.133 0.051 0.209 0 0 0 0 0 0 0.002 0.076-0.008 0.145-0.029 0.206 0 0 0 0 0 0-0.054 0.14-0.125 0.241-0.197 0.305-0.094 0.093-0.192 0.166-0.284 0.224-0.002 0.001-0.004 0.003-0.006 0.004-0.119 0.076-0.238 0.139-0.355 0.196-0.314 0.152-0.634 0.271-0.943 0.375-0.865 0.291-1.734 0.494-2.527 0.653-1.028 0.206-1.961 0.338-2.801 0.415-0.465 0.043-0.883 0.067-1.273 0.073-0.409 0.007-0.751-0.006-1.065-0.040-0.326-0.035-0.561-0.087-0.763-0.173-0.102-0.043-0.179-0.092-0.236-0.146-0.114-0.106-0.091-0.191-0.079-0.195 0.017-0.006 0.061 0.044 0.154 0.088 0.059 0.027 0.121 0.043 0.219 0.063 0.203 0.039 0.393 0.045 0.719 0.042 0.306-0.005 0.622-0.026 1.024-0.067 0.38-0.038 0.781-0.090 1.236-0.159 0.821-0.124 1.724-0.291 2.73-0.522 0.775-0.178 1.618-0.391 2.44-0.677 0.295-0.103 0.588-0.213 0.862-0.348 0.101-0.050 0.198-0.101 0.285-0.157 0.002-0.001 0.003-0.002 0.005-0.003 0.069-0.046 0.128-0.087 0.168-0.129 0.026-0.035 0.044-0.046 0.033-0.037 0 0 0 0 0 0-0.004 0.008-0.005 0.021-0.005 0.041 0 0 0 0 0 0 0.002 0.020 0.005 0.036 0.011 0.048 0.019 0.017 0.004 0.015-0.025-0.015-0.050-0.037-0.124-0.068-0.211-0.102-0.302-0.115-0.647-0.171-0.992-0.225-0.592-0.090-1.195-0.139-1.756-0.177-1.64-0.112-3.458-0.152-4.392-0.184-1.080-0.037-1.711-0.080-1.713-0.153z"></path>
		<path d="M22.176 15.908c0.035-0.059 0.508 0.141 1.281 0.549 0.743 0.392 1.881 1.039 3.066 1.838 0.376 0.254 0.78 0.538 1.17 0.857 0.216 0.174 0.451 0.376 0.657 0.632 0.058 0.070 0.121 0.162 0.173 0.282 0.019 0.043 0.035 0.098 0.045 0.165 0.009 0.055 0.006 0.121-0.011 0.196-0.053 0.152-0.139 0.256-0.244 0.307-0.118 0.058-0.219 0.083-0.295 0.085-0.111 0.011-0.213 0.009-0.305 0.001-0.014-0.001-0.028-0.002-0.042-0.004-0.105-0.010-0.206-0.024-0.303-0.042-0.289-0.051-0.566-0.123-0.829-0.199-0.729-0.211-1.421-0.473-2.039-0.728-0.794-0.328-1.488-0.658-2.090-0.978-0.331-0.176-0.621-0.343-0.883-0.508-0.273-0.172-0.49-0.324-0.679-0.479 0 0 0 0 0 0-0.093-0.076-0.171-0.148-0.24-0.219-0.068-0.070-0.121-0.136-0.162-0.201 0 0 0 0 0 0-0.041-0.064-0.065-0.126-0.071-0.183-0.003-0.031 0.001-0.059 0.009-0.081 0.019-0.050 0.051-0.054 0.059-0.048 0.013 0.008 0.010 0.030 0.022 0.057 0.005 0.013 0.012 0.024 0.022 0.040 0.022 0.034 0.047 0.055 0.097 0.1 0 0 0 0 0 0 0.050 0.043 0.103 0.081 0.179 0.131s0.157 0.099 0.256 0.156c0 0 0 0 0 0 0.207 0.118 0.418 0.226 0.707 0.366 0.274 0.132 0.563 0.265 0.903 0.414 0.617 0.27 1.304 0.551 2.099 0.846 0.615 0.228 1.296 0.468 1.994 0.66 0.253 0.069 0.508 0.134 0.762 0.178 0.085 0.015 0.168 0.027 0.248 0.034 0.011 0.001 0.021 0.002 0.032 0.003 0.071 0.005 0.132 0.007 0.182 0.001 0.038-0.009 0.053-0.006 0.035-0.003-0.032 0.010-0.057 0.049-0.089 0.122-0.006 0.032-0.008 0.054-0.005 0.065s0.002 0.014 0.001 0.007c-0.007-0.027-0.037-0.065-0.076-0.119-0.144-0.19-0.345-0.362-0.55-0.538-0.359-0.306-0.743-0.592-1.103-0.855-2.331-1.7-4.081-2.743-3.985-2.905z"></path>
		<path d="M19.823 17.77c0.079-0.064 1.174 0.93 2.39 2.666 0.2 0.285 0.409 0.602 0.598 0.944 0.115 0.206 0.231 0.438 0.315 0.7 0.027 0.084 0.051 0.18 0.063 0.288 0.011 0.076 0.009 0.171-0.014 0.281-0.018 0.088-0.066 0.181-0.148 0.27-0.018 0.017-0.037 0.033-0.056 0.047-0.068 0.052-0.138 0.084-0.207 0.099-0.101 0.022-0.188 0.026-0.259 0.017 0 0 0 0 0 0-0.091-0.009-0.173-0.027-0.244-0.049-0.19-0.057-0.359-0.135-0.509-0.216-0.434-0.231-0.816-0.511-1.148-0.779 0 0 0 0 0 0-0.441-0.355-0.816-0.713-1.13-1.056-0.375-0.407-0.631-0.754-0.811-1.093-0.098-0.182-0.156-0.339-0.184-0.483 0 0 0 0 0 0-0.057-0.264 0.046-0.379 0.077-0.37 0.019 0.005 0.056 0.13 0.141 0.295 0 0 0 0 0 0 0.063 0.113 0.136 0.214 0.258 0.366 0.231 0.285 0.486 0.542 0.892 0.908 0.331 0.297 0.709 0.61 1.145 0.927 0 0 0 0 0 0 0.33 0.239 0.692 0.488 1.073 0.681 0.134 0.066 0.262 0.126 0.386 0.16 0.046 0.012 0.084 0.021 0.115 0.023 0 0 0 0 0 0 0.025-0 0.035 0.002 0.029 0.001-0.009-0-0.021 0.007-0.040 0.021-0.005 0.004-0.011 0.008-0.017 0.013-0.023 0.030-0.035 0.045-0.033 0.054 0.003 0.003-0-0.014-0.001-0.047-0.004-0.045-0.017-0.098-0.035-0.159-0.056-0.192-0.152-0.387-0.253-0.584-0.164-0.317-0.352-0.626-0.531-0.912-0.458-0.73-1.145-1.737-1.396-2.122-0.343-0.525-0.524-0.849-0.468-0.894z"></path>
		<path d="M13.938 9.426c-0.097 0.053-1.054-1.254-2.053-3.324-0.164-0.339-0.333-0.711-0.482-1.103-0.089-0.233-0.178-0.491-0.233-0.773-0.018-0.088-0.031-0.187-0.033-0.296-0.004-0.062 0.003-0.138 0.026-0.228 0.004-0.016 0.009-0.033 0.014-0.051 0.024-0.087 0.089-0.178 0.195-0.261 0.112-0.067 0.217-0.095 0.305-0.088 0.106 0.005 0.19 0.025 0.253 0.051 0 0 0 0 0 0 0.086 0.032 0.161 0.070 0.225 0.108 0.177 0.103 0.33 0.22 0.467 0.334 0.4 0.331 0.754 0.695 1.059 1.025 0 0 0 0 0 0 0.406 0.439 0.766 0.867 1.062 1.24 0.35 0.44 0.621 0.814 0.812 1.107 0.104 0.159 0.18 0.288 0.231 0.392 0.027 0.054 0.046 0.099 0.057 0.136 0.016 0.053 0.017 0.086-0.001 0.096-0.014 0.008-0.046-0.002-0.087-0.032-0.030-0.020-0.069-0.051-0.113-0.089-0.082-0.070-0.197-0.179-0.328-0.306-0.236-0.231-0.576-0.58-0.954-0.967-0.321-0.33-0.719-0.738-1.129-1.138 0 0 0 0 0 0-0.315-0.307-0.666-0.645-1.035-0.936-0.128-0.101-0.254-0.195-0.381-0.265-0.046-0.025-0.086-0.046-0.12-0.057 0 0 0 0 0 0-0.028-0.007-0.038-0.013-0.029-0.009 0.015 0.006 0.043-0.006 0.095-0.032 0.043-0.040 0.066-0.063 0.065-0.078-0-0.001-0-0.002-0-0.002s0.001 0.016-0.002 0.046c-0.001 0.049 0.008 0.108 0.020 0.176 0.039 0.217 0.115 0.441 0.194 0.667 0.13 0.368 0.282 0.733 0.427 1.071 0.888 2.073 1.629 3.503 1.472 3.589z"></path>
		<path d="M11.703 11.885c-0.067 0.075-1.643-1.031-3.581-2.976-0.312-0.313-0.644-0.661-0.958-1.038-0.184-0.22-0.379-0.466-0.541-0.753-0.050-0.086-0.099-0.188-0.137-0.306-0.029-0.076-0.047-0.183-0.038-0.317 0.009-0.112 0.063-0.225 0.162-0.327 0.080-0.066 0.158-0.108 0.227-0.128 0.024-0.007 0.047-0.012 0.069-0.014 0.11-0.018 0.206-0.018 0.284-0.009 0 0 0 0 0 0 0.107 0.010 0.205 0.029 0.295 0.051 0.244 0.059 0.471 0.141 0.682 0.226 0.605 0.241 1.173 0.534 1.675 0.807 0 0 0 0 0 0 0.659 0.358 1.261 0.72 1.766 1.042 0.597 0.38 1.067 0.706 1.419 0.974 0.191 0.146 0.333 0.264 0.44 0.365 0.056 0.053 0.098 0.097 0.128 0.135 0.016 0.021 0.029 0.039 0.037 0.054 0.014 0.027 0.016 0.045 0.008 0.054-0.008 0.008-0.026 0.008-0.052 0.001-0.016-0.004-0.036-0.011-0.059-0.019-0.041-0.016-0.1-0.041-0.166-0.072-0.118-0.055-0.306-0.149-0.505-0.251-0.324-0.168-0.954-0.502-1.509-0.796-0.518-0.274-1.146-0.603-1.799-0.926 0 0 0 0 0 0-0.503-0.248-1.063-0.519-1.63-0.735-0.199-0.076-0.398-0.146-0.593-0.191-0.072-0.016-0.138-0.030-0.199-0.034 0 0 0 0 0 0-0.047-0.002-0.080-0.005-0.095 0-0.002 0.002-0.002 0.003-0.001 0.003 0.002-0.001 0.016-0.013 0.046-0.032 0.036-0.043 0.054-0.072 0.053-0.099-0.004-0.016 0.004-0.003 0.010 0.034 0.015 0.052 0.045 0.111 0.081 0.179 0.122 0.225 0.291 0.442 0.463 0.658 0.288 0.36 0.601 0.706 0.895 1.025 0.763 0.828 1.885 1.97 2.295 2.401 0.564 0.594 0.877 0.96 0.828 1.014z"></path>
		<path d="M10.436 12.481c-0 0.074-0.613 0.132-1.658 0.195-0.909 0.055-2.658 0.136-4.239 0.291-0.539 0.053-1.118 0.118-1.683 0.224-0.329 0.064-0.656 0.13-0.935 0.255-0.081 0.037-0.148 0.070-0.19 0.107-0.024 0.028-0.037 0.032-0.022 0.016 0.007-0.031 0.009-0.047 0.003-0.063-0.006-0.001 0.009 0.012 0.032 0.040 0.003 0.003 0.006 0.007 0.009 0.011 0.1 0.111 0.267 0.197 0.45 0.294 0.264 0.134 0.548 0.244 0.833 0.346 0.784 0.28 1.589 0.49 2.321 0.664 0 0 0 0 0 0 0.943 0.224 1.777 0.385 2.529 0.506 0.413 0.067 0.767 0.116 1.104 0.153 0 0 0 0 0 0 0.352 0.039 0.612 0.059 0.871 0.064 0 0 0 0 0 0 0.122 0.002 0.222 0.001 0.318-0.007 0.093-0.008 0.159-0.016 0.222-0.034 0 0 0 0 0 0 0.060-0.020 0.092-0.029 0.119-0.054 0.014-0.011 0.024-0.024 0.031-0.036 0 0 0 0 0 0 0.021-0.035 0.017-0.062 0.035-0.067 0.009-0.003 0.043 0.013 0.050 0.077 0 0 0 0 0 0 0.002 0.025-0.001 0.057-0.016 0.090-0.027 0.056-0.078 0.11-0.146 0.148 0 0 0 0 0 0-0.072 0.043-0.154 0.076-0.252 0.103-0.103 0.029-0.215 0.051-0.342 0.068 0 0 0 0 0 0-0.266 0.036-0.556 0.050-0.913 0.046 0 0 0 0 0 0-0.347-0.004-0.721-0.024-1.142-0.062-0.77-0.070-1.636-0.192-2.602-0.387 0 0 0 0 0 0-0.752-0.152-1.583-0.348-2.412-0.632-0.3-0.102-0.611-0.221-0.916-0.373-0.203-0.096-0.431-0.225-0.637-0.429-0.008-0.007-0.016-0.015-0.023-0.023-0.064-0.066-0.125-0.158-0.173-0.279-0.046-0.126-0.046-0.265 0.001-0.405 0.065-0.149 0.15-0.252 0.236-0.311 0.12-0.093 0.241-0.157 0.35-0.201 0.37-0.155 0.745-0.232 1.087-0.289 0.602-0.104 1.2-0.158 1.75-0.195 1.705-0.115 3.285-0.089 4.289-0.044 1.050 0.048 1.661 0.123 1.661 0.192z"></path>
		<path d="M11.628 15.982c0.12 0.137-1.273 1.375-3.091 3.273-0.291 0.304-0.6 0.633-0.887 0.976-0.17 0.205-0.338 0.41-0.461 0.623-0.036 0.064-0.066 0.119-0.081 0.166 0 0 0 0 0 0-0.006 0.036-0.014 0.041-0.009 0.017 0.001-0.037-0.022-0.074-0.068-0.126-0.050-0.029-0.066-0.043-0.059-0.034 0 0 0.001 0 0.001 0 0.014 0.004 0.044-0.001 0.089-0.005 0.059-0.007 0.123-0.023 0.192-0.041 0.189-0.051 0.38-0.126 0.571-0.206 0.547-0.229 1.079-0.508 1.561-0.768 0.635-0.344 1.201-0.677 1.7-0.981 0.282-0.172 0.528-0.326 0.759-0.475 0.25-0.161 0.438-0.287 0.623-0.417 0.207-0.146 0.305-0.217 0.431-0.321 0.062-0.052 0.090-0.075 0.128-0.113 0.041-0.045 0.082-0.080 0.091-0.080 0.020 0 0.047 0.049 0.016 0.141-0.016 0.053-0.045 0.112-0.088 0.179-0.085 0.133-0.2 0.269-0.371 0.439-0.16 0.161-0.347 0.329-0.576 0.517-0.215 0.178-0.455 0.363-0.725 0.56-0.48 0.349-1.040 0.724-1.674 1.101-0.481 0.286-1.024 0.589-1.607 0.843-0.202 0.089-0.42 0.175-0.655 0.242-0.086 0.025-0.181 0.046-0.283 0.061-0.073 0.012-0.163 0.017-0.268 0.005-0.002-0-0.004-0-0.006-0.001-0.080-0.002-0.183-0.042-0.298-0.127-0.105-0.102-0.161-0.216-0.168-0.33-0.006-0.135 0.014-0.239 0.045-0.308 0 0 0 0 0 0 0.041-0.113 0.091-0.208 0.14-0.289 0.164-0.271 0.356-0.505 0.538-0.712 0.313-0.358 0.641-0.689 0.949-0.986 1.922-1.855 3.473-2.903 3.54-2.825z"></path>
		<path d="M14.161 18.143c0.059 0.043-0.109 0.384-0.433 0.939-0.157 0.269-0.97 1.605-1.329 2.23-0.167 0.292-0.343 0.607-0.495 0.927-0.090 0.193-0.177 0.382-0.22 0.562-0.012 0.055-0.022 0.098-0.021 0.129 0 0 0 0 0 0 0.005 0.023-0.001 0.020-0.006-0.006-0.010-0.026-0.028-0.047-0.057-0.068-0.006-0.005-0.013-0.009-0.020-0.014-0.038-0.014-0.052-0.021-0.047-0.016 0 0 0 0 0 0v0c0.038 0.009 0.112-0.027 0.218-0.064v0c0.144-0.059 0.29-0.14 0.436-0.225v0c0.408-0.239 0.807-0.523 1.162-0.779 0 0 0 0 0 0v0c0.446-0.322 0.902-0.666 1.248-0.924v0c0.421-0.314 0.763-0.566 1.019-0.74v0c0.136-0.092 0.246-0.16 0.327-0.202v0c0.041-0.021 0.075-0.035 0.101-0.042v0c0 0 0 0 0 0 0.013-0.003 0.024-0.005 0.033-0.004v0 0c0.004 0 0.008 0.001 0.012 0.003 0.002 0.001 0.003 0.002 0.005 0.002s0.003 0.002 0.004 0.003 0.002 0.003 0.003 0.004 0.001 0.003 0.002 0.005 0.002 0.007 0.001 0.012v0 0c-0 0.009-0.003 0.019-0.007 0.032 0 0 0 0 0 0v0c-0.009 0.025-0.026 0.057-0.052 0.096v0c-0.050 0.076-0.13 0.178-0.239 0.303v0c-0.202 0.232-0.506 0.544-0.889 0.906v0c-0.33 0.311-0.735 0.673-1.188 1.039v0c0 0 0 0 0 0-0.348 0.282-0.749 0.591-1.191 0.864v0c-0.156 0.097-0.328 0.195-0.519 0.277v0c-0.117 0.057-0.28 0.112-0.488 0.12v0c0 0 0 0 0 0-0.076 0.005-0.173-0.016-0.282-0.069-0.019-0.011-0.037-0.023-0.054-0.036-0.077-0.057-0.133-0.128-0.168-0.209-0.044-0.115-0.058-0.213-0.051-0.287 0 0 0 0 0 0 0.004-0.109 0.022-0.203 0.044-0.282 0.070-0.26 0.175-0.488 0.278-0.689 0.174-0.346 0.37-0.669 0.556-0.961 1.162-1.817 2.22-2.901 2.307-2.839z"></path>
		<path d="M16.396 20.229c0.19 0.007 0.327 0.447 0.307 0.982s-0.191 0.963-0.381 0.955c-0.19-0.007-0.327-0.447-0.307-0.982s0.191-0.963 0.381-0.955z"></path>
		<path d="M16.992 20.452c0.19 0 0.344 0.317 0.344 0.708s-0.154 0.708-0.344 0.708c-0.19 0-0.344-0.317-0.344-0.708s0.154-0.708 0.344-0.708z"></path>
		<path d="M17.663 20.080c0.189-0.016 0.376 0.372 0.417 0.865s-0.079 0.907-0.268 0.923c-0.189 0.016-0.376-0.372-0.417-0.865s0.079-0.907 0.268-0.923z"></path>
		<path d="M15.726 21.123c0-0.107 0.203-0.203 0.521-0.266 0.091-0.013 0.126-0.007 0.078-0.017 0.17-0.065-0.277 0.068 0.144-0.096 0.077-0.018 0.127-0.023 0.143-0.023 0.044-0.004 0.085-0.007 0.125-0.008 0.062-0.003 0.139-0.003 0.181-0.005 0.068-0.002 0.137-0.004 0.208-0.004 0.135 0 0.265 0.005 0.388 0.013 0.077 0.005 0.152 0.012 0.224 0.020 0.18-0.036 0.115 0.022-0.138 0.098-0.087 0.219-0.113 0.298-0.070 0.262-0.049 0.010-0.025-0.108 0.078-0.329 0.229-0.102 0.336-0.115 0.325-0.066 0.034-0.039-0.048-0.005-0.241 0.075-0.020 0.202-0.012 0.177 0.065-0.010 0.198-0.073 0.198-0.064 0.033-0.042 0 0 0 0 0 0-0.068 0.178-0.087 0.236-0.051 0.204-0.038 0.005-0.016-0.095 0.066-0.264 0.183-0.081 0.263-0.084 0.258-0.044 0.028-0.026-0.033 0.005-0.166 0.062-0.052 0.126-0.063 0.166-0.036 0.152-0.012 0.001-0.004-0.064 0.025-0.162 0.020-0.041 0.102-0.090 0.178-0.109 0 0 0 0 0 0 0.114 0.004 0.123 0.086 0.123 0.11 0 0.012-0.053 0.111-0.049 0.115 0 0 0 0 0 0 0.021-0.002 0.069 0.003 0.052 0.035 0.017-0.071 0.035-0.115 0.030-0.084 0.032 0.010 0.029 0.079-0.041 0.223-0.15 0.074-0.244 0.096-0.24 0.062-0.030 0.033 0.019 0.017 0.183-0.044 0.064-0.152 0.096-0.22 0.066-0.19 0.043-0.007 0.036 0.081-0.051 0.279 0 0 0 0 0 0-0.191 0.055-0.27 0.035-0.116-0.042 0.074-0.132 0.123-0.106 0.065 0.139-0.211 0.099-0.325 0.122-0.316 0.075-0.035 0.042 0.040 0.018 0.251-0.066 0.085-0.203 0.118-0.29 0.078-0.254 0.051-0.011 0.037 0.1-0.070 0.337-0.299 0.116-0.405 0.131-0.287 0.098-0.071 0.008-0.146 0.015-0.224 0.020-0.123 0.009-0.254 0.013-0.388 0.013-0.071 0-0.14-0.001-0.208-0.004-0.078-0.002-0.144-0.010-0.196-0.015-0.131-0.012 0.027 0.002-0.097-0.010-0.034 0.002-0.033-0.005-0.004-0.011 0.069-0.042 0.019 0.002-0.154 0.054-0.151 0.015-0.214-0.006-0.22-0.017-0.318-0.063-0.521-0.159-0.521-0.266z"></path>
		<path d="M15.726 22.017c-0.045-0.185 0.47-0.468 1.148-0.632s1.266-0.148 1.31 0.036c0.045 0.185-0.47 0.468-1.148 0.632s-1.266 0.148-1.31-0.036z"></path>
		<path d="M15.8 20.75c-0.038-0.186 0.498-0.454 1.197-0.598s1.298-0.11 1.336 0.076c0.038 0.186-0.498 0.454-1.197 0.598s-1.298 0.11-1.336-0.076z"></path>
		<path d="M15.13 22.166c-0.035-0.187 0.738-0.488 1.725-0.673s1.816-0.184 1.851 0.003c0.035 0.187-0.738 0.488-1.725 0.673s-1.816 0.184-1.851-0.003z"></path>
		<path d="M16.098 22.091c0.189 0.013 0.193 2.243 0.008 4.978s-0.489 4.944-0.679 4.931c-0.19-0.013-0.193-2.243-0.008-4.978s0.489-4.944 0.679-4.931z"></path>
		<path d="M16.396 22.017c0.19 0.011 0.227 2.122 0.083 4.713s-0.415 4.685-0.604 4.674c-0.19-0.011-0.227-2.122-0.083-4.713s0.415-4.685 0.604-4.674z"></path>
		<path d="M16.918 22.017c0.19 0.002 0.327 1.955 0.307 4.361s-0.191 4.357-0.381 4.355c-0.19-0.002-0.327-1.955-0.307-4.361s0.191-4.357 0.381-4.355z"></path>
		<path d="M17.216 21.793c0.189-0.014 0.493 1.943 0.678 4.369s0.182 4.407-0.008 4.422c-0.189 0.014-0.493-1.943-0.678-4.369s-0.182-4.407 0.008-4.422z"></path>
		<path d="M17.588 21.57c0.188-0.025 0.625 2.108 0.974 4.76s0.48 4.825 0.292 4.85c-0.188 0.025-0.625-2.108-0.974-4.76s-0.48-4.825-0.292-4.85z"></path>
		<path d="M19.376 30.733c-0.265 0.042-0.822-3.976-1.418-8.953 0.005 0.019 0.002 0.008 0.007 0.027 1.334 4.845 2.342 8.789 2.081 8.851s-1.116-3.913-2.078-8.825c-0.006-0.029 0 0.001-0.005-0.028 0.968 4.898 1.678 8.886 1.413 8.928z"></path>
		<path d="M16.769 22.315c0.19 0.002 0.327 2.005 0.307 4.473s-0.191 4.469-0.381 4.467c-0.19-0.002-0.327-2.005-0.307-4.473s0.191-4.469 0.381-4.467z"></path>
		<path d="M17.29 22.762c0.19-0.004 0.377 1.762 0.419 3.942s-0.080 3.951-0.27 3.955c-0.19 0.004-0.377-1.762-0.419-3.942s0.080-3.951 0.27-3.955z"></path>
		<path d="M15.726 22.017c0.19 0.005 0.294 2.044 0.232 4.553s-0.266 4.541-0.456 4.536c-0.19-0.005-0.294-2.044-0.232-4.553s0.266-4.541 0.456-4.536z"></path>
		<path d="M18.259 21.868c0.187-0.035 0.722 1.989 1.195 4.519s0.705 4.61 0.519 4.645c-0.187 0.035-0.722-1.989-1.195-4.519s-0.705-4.61-0.519-4.645z"></path>
	</symbol>

	<symbol id="coin" viewBox="0 0 32 32">
		<title>Traditional Chinese coin - this type of coin with circular edges and rectangular holes in the middle dates back to the earliest Chinese dynasties. Nowadays, it serves decrotive purposes during festivals and celebrations. </title>
		<path stroke-width="7.8856" stroke-miterlimit="4" stroke-linecap="butt" stroke-linejoin="miter" d="M16 1.096c-0 0-0 0-0 0-8.231 0-14.904 6.673-14.904 14.904s6.673 14.904 14.904 14.904c0 0 0 0 0 0 8.231-0 14.903-6.673 14.904-14.904s-6.673-14.904-14.904-14.904zM16 1.311c8.087 0 14.642 6.556 14.642 14.643 0 0 0 0 0 0-0 8.087-6.556 14.642-14.642 14.642-0 0-0 0-0 0-8.087 0-14.642-6.556-14.643-14.642 0-0 0-0 0-0 0-8.087 6.556-14.643 14.643-14.643 0 0 0 0 0 0z"></path>
		<path d="M16 3.399c-6.959 0-12.601 5.642-12.601 12.601 0 0 0 0 0 0 0 6.959 5.642 12.601 12.601 12.601 0 0 0 0 0 0 6.959 0 12.601-5.642 12.601-12.601 0-0 0-0 0-0 0-6.96-5.642-12.601-12.601-12.601-0 0-0 0-0 0zM16.022 4.716l1.775 3.171-1.819 3.093-1.775-3.171 1.819-3.094zM13.155 11.99h5.69c0.747 0 1.347 0.601 1.347 1.348v5.69c0 0.747-0.601 1.348-1.347 1.348h-5.69c-0.747 0-1.348-0.601-1.348-1.348v-5.69c0-0.747 0.601-1.348 1.348-1.348zM24.263 14.285l2.96 1.888-3.175 1.76-2.96-1.888 3.175-1.76zM8.027 14.367l3.079 1.816-3.062 1.665-3.079-1.816 3.062-1.665zM16.051 21.041l1.727 3.117-1.829 3.253-1.727-3.117 1.828-3.253z"></path>
	</symbol>

	<symbol id="fan" viewBox="0 0 106 64">
		<title>Handheld fan - as its name suggests, this fan is held and waved by hand to create air flow and make you feel cooler. It was widely used in China before the dawn of ACs. Today the fan still has both practical and aesthetic uses in China.</title>
		<path stroke-width="2.9922" stroke-miterlimit="4" stroke-linecap="butt" stroke-linejoin="miter" d="M52.709 0.422c-24.804 0.076-45.687 16.774-52.099 39.537l52.259 14.749 52.521-13.733c-6.271-23.412-27.227-40.397-52.175-40.552-0.107-0.001-0.213-0.001-0.319-0.001-0.066 0-0.131 0-0.197 0zM52.409 2.021c0.731-0.012 1.454 8.086 1.614 18.074s-0.303 18.105-1.034 18.117c-0.731 0.012-1.454-8.086-1.614-18.074s0.303-18.105 1.034-18.117zM39.55 3.228c0.705-0.192 3.439 7.597 6.102 17.386s4.254 17.89 3.548 18.082c-0.705 0.192-3.439-7.597-6.103-17.386s-4.253-17.89-3.548-18.082zM65.607 3.469c0.708 0.179-0.771 8.432-3.301 18.421s-5.159 17.95-5.867 17.77c-0.708-0.179 0.77-8.432 3.301-18.421s5.159-17.95 5.868-17.77zM76.151 6.839c0.027-0.005 0.051-0.002 0.072 0.008 0.657 0.319-2.484 8.144-7.013 17.467s-8.737 16.63-9.394 16.311c-0.657-0.319 2.484-8.144 7.013-17.467 4.387-9.031 8.473-16.172 9.322-16.319zM27.075 8.28c0.854 0.063 5.496 6.684 10.592 15.135 5.26 8.724 9.021 16.11 8.395 16.487s-5.403-6.397-10.663-15.12c-5.26-8.724-9.021-16.11-8.395-16.487 0.020-0.012 0.043-0.017 0.071-0.014zM87.254 14.301c0.028 0.002 0.050 0.011 0.068 0.026 0.555 0.476-4.562 7.347-11.421 15.338s-12.876 14.090-13.43 13.614c-0.554-0.476 4.562-7.347 11.421-15.338 6.645-7.741 12.499-13.707 13.362-13.64zM17.177 15.985c0.839-0.146 6.825 5.105 13.662 12.007 7.058 7.125 12.365 13.324 11.846 13.839s-6.669-4.851-13.727-11.975c-7.058-7.125-12.365-13.324-11.846-13.839 0.016-0.016 0.038-0.027 0.065-0.032zM94.165 23.92c0.076 0.001 0.128 0.020 0.154 0.057 0.419 0.599-5.889 5.733-14.080 11.459s-15.179 9.889-15.597 9.29c-0.419-0.599 5.889-5.733 14.080-11.46 7.679-5.369 14.3-9.362 15.443-9.347zM10.026 24.158c1.146-0.044 7.91 3.787 15.776 8.968 8.391 5.527 14.874 10.508 14.472 11.119s-7.538-3.38-15.929-8.907c-8.39-5.527-14.874-10.508-14.472-11.119 0.025-0.038 0.077-0.058 0.153-0.061zM5.245 34.464c1.809-0.007 8.917 1.998 17.249 4.912 9.523 3.33 17.055 6.591 16.814 7.281s-8.165-1.452-17.688-4.782c-9.523-3.33-17.055-6.592-16.814-7.282 0.030-0.086 0.181-0.128 0.439-0.129zM99.919 34.703c0.254 0.002 0.401 0.045 0.431 0.131 0.241 0.69-7.129 3.898-16.452 7.161s-17.085 5.351-17.327 4.661c-0.241-0.69 7.129-3.898 16.452-7.161 8.157-2.855 15.12-4.811 16.895-4.793zM53.025 40.13c0.024-0 0.053-0 0.082-0 6.467 0 11.918 4.349 13.588 10.282l-13.588 3.832-13.654-3.573c1.632-6.087 7.081-10.502 13.568-10.541z"></path>
		<path stroke-width="2.9922" stroke-miterlimit="4" stroke-linecap="butt" stroke-linejoin="miter" d="M61.666 57.025c-1.093 3.961-4.689 6.558-8.608 6.555-0.784-0.001-1.58-0.105-2.373-0.324-3.168-0.874-5.464-3.351-6.255-6.313l8.629-2.293z"></path>
	</symbol>

	<symbol id="firecracker" viewBox="0 0 20 32">
		<title>Firecracker - usually used by families during the Spring Festival. The "formal" purpose of the firecracker is to break away from the old year and celebrate the new. Children also play with it for fun. </title>
		<path d="M19.999 7.115c0.111 0 0.192 4.973 0.182 11.1s-0.109 11.099-0.219 11.099c-0.111-0-0.192-4.973-0.182-11.1s0.109-11.099 0.219-11.099z"></path>
		<path d="M0.231 7.133c0.111 0 0.188 4.98 0.172 11.114s-0.118 11.114-0.229 11.113c-0.111-0-0.188-4.98-0.172-11.114s0.118-11.114 0.229-11.113z"></path>
		<path d="M9.945 10.915c-0.011 0-0.023 0.004-0.032 0.012l-7.39 6.986c-0.018 0.017-0.018 0.043 0 0.060l7.39 6.986c0.018 0.017 0.046 0.017 0.063 0l7.39-6.986c0.018-0.017 0.018-0.043 0-0.060l-7.39-6.986c-0.009-0.008-0.020-0.012-0.032-0.012zM7.999 14.999c0.132 0.015 0.33 0.149 0.501 0.352 0.224 0.264 0.318 0.545 0.21 0.627s-0.378-0.066-0.601-0.331c-0.224-0.264-0.318-0.545-0.21-0.627 0.013-0.010 0.030-0.017 0.048-0.020 0.016-0.003 0.034-0.003 0.052-0.001zM11.581 15.14c0.304-0.002 0.511 0.039 0.524 0.12 0.022 0.129-0.46 0.309-1.075 0.402s-1.133 0.063-1.154-0.066c-0.022-0.129 0.46-0.309 1.075-0.402 0.231-0.035 0.448-0.052 0.63-0.054zM11.682 15.906c0.304-0.002 0.511 0.039 0.524 0.12 0.022 0.129-0.46 0.309-1.075 0.402s-1.133 0.063-1.154-0.066c-0.022-0.129 0.46-0.309 1.075-0.402 0.231-0.035 0.448-0.052 0.63-0.054zM12.435 16.118c0.009 0 0.017 0.002 0.026 0.005 0.13 0.044 0.123 0.38-0.017 0.75s-0.359 0.635-0.489 0.591c-0.13-0.044-0.123-0.38 0.017-0.75 0.131-0.347 0.332-0.601 0.464-0.595zM9.18 16.379c-0.111 0.116-0.33 0.344-0.455 0.474-0.984 1.022-1.817 1.786-1.94 1.664-0.125-0.124 0.704-0.857 1.763-1.685 0.2-0.156 0.316-0.246 0.503-0.393-1.002 0.272-1.786 0.399-1.811 0.257-0.024-0.14 0.782-0.261 1.939-0.318zM9.699 16.405c0.13-0.007 0.3 0.201 0.392 0.486 0.098 0.304 0.070 0.582-0.063 0.62s-0.319-0.178-0.417-0.482c-0.098-0.304-0.070-0.582 0.062-0.62 0.008-0.002 0.017-0.004 0.026-0.004zM11.158 17.27c0.359 0 0.635 0.079 0.643 0.194 0.009 0.131-0.336 0.258-0.769 0.284s-0.793-0.058-0.802-0.189c-0.009-0.131 0.336-0.258 0.769-0.284 0.054-0.003 0.107-0.005 0.159-0.005zM8.41 17.69c0.119-0.001 0.282 0.052 0.44 0.151 0.252 0.159 0.394 0.376 0.317 0.485s-0.343 0.069-0.595-0.090c-0.252-0.159-0.394-0.376-0.317-0.485 0.029-0.041 0.084-0.061 0.156-0.061zM13.424 17.863c-0.317 1.235-0.621 2.086-0.761 2.044-0.143-0.043 0.122-0.871 0.557-1.884-0.19 0.032-0.393 0.066-0.594 0.099-1.453 0.239-2.679 0.366-2.699 0.204-0.020-0.16 1.244-0.318 2.86-0.424 0.218-0.014 0.435-0.027 0.637-0.039zM8.102 17.894c0.138-0.005 0.273 0.538 0.301 1.212s-0.062 1.226-0.2 1.231c-0.138 0.005-0.273-0.538-0.301-1.212s0.062-1.226 0.2-1.231zM9.521 18.182c0.136-0.024 0.337 0.418 0.449 0.987 0.069 0.35 0.087 0.665 0.060 0.863 0.125-0.078 0.468-0.144 0.903-0.175-0.033-0.099-0.059-0.223-0.075-0.363-0.383 0.023-0.662-0.017-0.678-0.113-0.018-0.101 0.261-0.233 0.665-0.33 0.018-0.358 0.107-0.625 0.223-0.628 0.108-0.003 0.206 0.224 0.25 0.542 0.176-0.023 0.344-0.038 0.487-0.040 0.29-0.003 0.489 0.039 0.503 0.12 0.022 0.125-0.407 0.296-0.966 0.391-0.006 0.155-0.026 0.293-0.054 0.404 0.018-0 0.035-0.002 0.053-0.002 0.755-0.013 1.37 0.082 1.373 0.213s-0.608 0.248-1.364 0.261c-0.661 0.012-1.215-0.060-1.344-0.166-0.019 0.056-0.046 0.091-0.079 0.097-0.136 0.024-0.337-0.418-0.449-0.987s-0.092-1.049 0.044-1.073z"></path>
		<path d="M20.048 28.983c0 1.329-4.462 2.407-9.966 2.407s-9.966-1.078-9.966-2.407c0-1.329 4.462-2.407 9.966-2.407s9.966 1.078 9.966 2.407z"></path>
		<path d="M10.102 5.085c-5.467 0-9.898 1.002-9.898 2.237 0 0 0 0 0 0 0 1.236 4.432 2.237 9.898 2.237s9.898-1.002 9.898-2.237c0-0 0-0 0-0 0-1.236-4.432-2.237-9.898-2.237zM10.102 6.102c0 0 0 0 0 0 4.044 0 7.322 0.516 7.322 1.153s-3.278 1.153-7.322 1.153c-0 0-0 0-0 0s-0 0-0 0c-4.044 0-7.322-0.516-7.322-1.153s3.278-1.153 7.322-1.153c0 0 0 0 0 0z"></path>
		<path d="M9.947 7.362c-0.047-0.010-0.015-0.5 0.153-1.284 0.166-0.775 0.474-1.866 1.036-2.973 0 0 0 0 0 0 0.037-0.073 0.075-0.147 0.115-0.22 0.453-0.841 0.975-1.502 1.552-1.999 0.53-0.457 1.024-0.695 1.412-0.808 0.184-0.053 0.329-0.074 0.432-0.077 0 0 0 0 0 0 0.101 0.002 0.156 0.011 0.159 0.029s-0.047 0.042-0.142 0.072c0 0 0 0 0 0-0.097 0.036-0.216 0.080-0.382 0.158-0.352 0.164-0.773 0.419-1.252 0.878-0.52 0.498-0.987 1.128-1.426 1.939-0.038 0.071-0.075 0.141-0.112 0.212 0 0 0 0 0 0-0.546 1.059-0.894 2.118-1.125 2.861-0.235 0.755-0.363 1.226-0.421 1.214z"></path>
	</symbol>

	<symbol id="food" viewBox="0 0 32 32">
		<title>Chinese dumpling, Baozi and Tangyuan - very typical Spring Festival foods in China. During the whole festival period, every household cook these meals; if dining out, basically everyone would order them. </title>
		<path d="M16 0c-8.837 0-16 7.163-16 16s7.163 16 16 16c8.837 0 16-7.163 16-16s-7.163-16-16-16zM16.117 1.646c0 0 0 0 0 0 7.983 0 14.454 6.49 14.454 14.496 0 0 0 0 0 0-0 8.006-6.471 14.496-14.454 14.496-0 0-0 0-0 0-7.983-0-14.454-6.49-14.454-14.496 0-0 0-0 0-0 0-8.006 6.471-14.496 14.454-14.496z"></path>
		<path d="M15.942 7.371c-0.017 0.166-1.459-0.117-3.68 0.27 0 0 0 0 0 0-0.84 0.147-1.809 0.406-2.735 0.884-0.686 0.353-1.357 0.83-1.935 1.442-0.18 0.19-0.351 0.393-0.511 0.608-0.294 0.394-0.542 0.811-0.745 1.238-0.696 1.458-0.87 3-0.834 4.259 0.024 0.796 0.131 1.485 0.261 2.057 0.263 1.153 0.604 1.773 0.538 1.809-0.042 0.024-0.5-0.541-0.869-1.72-0.182-0.58-0.337-1.293-0.398-2.123-0.098-1.316 0.045-2.949 0.778-4.53 0.215-0.463 0.481-0.915 0.8-1.342 0.174-0.233 0.36-0.453 0.557-0.659 0.634-0.664 1.366-1.17 2.111-1.534 1.007-0.491 2.033-0.73 2.915-0.84 0 0 0 0 0 0 2.323-0.29 3.748 0.166 3.747 0.179z"></path>
		<path d="M16.039 7.524c0.066 0.018-0.157 1.866-1.397 4.282-0.493 0.961-1.13 1.962-1.934 2.959-0.104 0.128-0.208 0.255-0.313 0.378 0 0 0 0 0 0-1.344 1.576-2.877 2.836-3.919 3.628-1.080 0.821-1.786 1.26-1.83 1.204-0.052-0.067 0.567-0.618 1.574-1.515 0.954-0.849 2.451-2.177 3.729-3.695 0 0 0 0 0 0 0.102-0.121 0.203-0.243 0.304-0.368 0.781-0.969 1.413-1.924 1.926-2.84 1.283-2.292 1.707-4.075 1.861-4.034z"></path>
		<path d="M12.382 10.020c0.053-0.152 0.464-0.148 0.917 0.010s0.777 0.41 0.724 0.562c-0.053 0.152-0.464 0.148-0.917-0.010s-0.777-0.41-0.724-0.562z"></path>
		<path d="M11.326 11.518c0.069-0.146 0.479-0.097 0.916 0.11s0.735 0.493 0.665 0.639c-0.069 0.146-0.479 0.097-0.916-0.11s-0.735-0.493-0.665-0.639z"></path>
		<path d="M10.544 12.556c0.093-0.132 0.482-0.019 0.87 0.253s0.626 0.6 0.534 0.732c-0.093 0.132-0.482 0.019-0.87-0.253s-0.626-0.6-0.534-0.732z"></path>
		<path d="M9.903 13.7c0.118-0.11 0.425 0.026 0.685 0.304s0.376 0.593 0.258 0.703c-0.118 0.11-0.425-0.026-0.685-0.304s-0.376-0.593-0.258-0.703z"></path>
		<path d="M9.025 14.666c0.153-0.052 0.39 0.24 0.529 0.651s0.128 0.787-0.025 0.839c-0.153 0.052-0.39-0.24-0.529-0.651s-0.128-0.787 0.025-0.839z"></path>
		<path d="M7.9 15.668c0.151-0.057 0.395 0.221 0.544 0.619s0.147 0.767-0.004 0.824c-0.151 0.057-0.395-0.221-0.544-0.619s-0.147-0.767 0.004-0.824z"></path>
		<path d="M6.975 16.894c0.16-0.022 0.334 0.275 0.388 0.663s-0.031 0.721-0.191 0.744c-0.16 0.022-0.334-0.275-0.388-0.663s0.031-0.721 0.191-0.744z"></path>
		<path d="M13.201 8.936c-0.009-0.161 0.313-0.31 0.717-0.331s0.74 0.091 0.748 0.253c0.009 0.161-0.313 0.31-0.717 0.331s-0.74-0.091-0.748-0.253z"></path>
		<path stroke-width="0.4679" stroke-miterlimit="4" stroke-linecap="butt" stroke-linejoin="miter" d="M15.977 18.352c-1.929-0.002-3.549 0.92-4.010 2.434 0 0 0 0 0 0-0.603 1.982 1.008 4.228 3.598 5.017s5.18-0.179 5.783-2.161c0-0 0-0 0-0 0.603-1.982-1.008-4.228-3.598-5.017-0.612-0.186-1.223-0.274-1.808-0.275zM16.017 18.563c0.368 0.009 0.78 0.064 1.194 0.166 0.217 0.053 0.434 0.119 0.651 0.199 2.188 0.8 3.557 2.673 3.289 4.362-0.027 0.167-0.069 0.333-0.129 0.495-0.6 1.64-2.711 2.408-4.898 1.87-0.217-0.053-0.434-0.119-0.651-0.199-2.188-0.8-3.557-2.673-3.289-4.362 0.027-0.167 0.069-0.333 0.129-0.495 0.486-1.33 1.965-2.086 3.673-2.038z"></path>
		<path d="M17.873 25.143c-0.552 0.762-2.172 0.613-3.618-0.333s-2.172-2.331-1.62-3.093c0.552-0.762 2.172-0.613 3.618 0.333s2.172 2.331 1.62 3.093z"></path>
		<path d="M19.727 8.88c-0.006-0 0.16 0.494-0.151 1.358-0.145 0.398-0.401 0.849-0.819 1.274-0.617 0.529-1.491 1.302-2.051 2.24-0.153 0.257-0.289 0.536-0.365 0.829-0.055 0.213-0.082 0.435-0.059 0.65 0.018 0.174 0.068 0.348 0.149 0.508 0.072 0.144 0.171 0.279 0.288 0.403 0.197 0.208 0.445 0.38 0.721 0.515 0.162 0.085 0.362 0.13 0.585 0.184 0.291 0.067 0.591 0.116 0.901 0.158 0.319 0.043 0.643 0.075 0.971 0.095 0.273 0.016 0.545 0.026 0.81 0.010 0.514-0.032 1.041-0.070 1.559-0.134 0.602-0.075 1.179-0.184 1.731-0.355 0.462-0.143 0.894-0.327 1.278-0.572 0.382-0.242 0.713-0.545 0.97-0.89 0.185-0.276 0.291-0.603 0.323-0.929 0.041-0.403-0.040-0.812-0.198-1.17-0.221-0.503-0.607-0.922-1.010-1.251-0.683-0.554-1.492-0.912-2.162-1.16-0.284-0.17-0.55-0.331-0.796-0.48-0.049-0.030-0.091-0.062-0.126-0.090-0.099-0.080-0.187-0.165-0.265-0.251-0.323-0.355-0.499-0.744-0.593-1.043-0-0-0-0.001-0-0.001s-0.001-0.002-0.001-0.002-0.003-0.006-0.005-0.009c-0.008-0.017-0.017-0.034-0.027-0.050-0.034-0.061-0.070-0.115-0.106-0.163-0.109-0.143-0.206-0.221-0.285-0.272-0.075-0.049-0.122-0.067-0.118-0.083 0.003-0.011 0.055-0.021 0.152 0.009s0.233 0.099 0.371 0.241c0.048 0.048 0.096 0.104 0.142 0.168 0.013 0.017 0.025 0.036 0.038 0.055 0.004 0.007 0.008 0.013 0.012 0.020 0.001 0.002 0.002 0.004 0.003 0.005 0 0.001 0.001 0.001 0.001 0.002 0.119 0.27 0.314 0.617 0.626 0.919 0.075 0.072 0.156 0.141 0.244 0.203 0.035 0.024 0.067 0.047 0.096 0.061 0.246 0.131 0.509 0.273 0.788 0.424 0.698 0.218 1.545 0.556 2.298 1.13 0.457 0.346 0.902 0.81 1.186 1.405 0.203 0.427 0.309 0.923 0.269 1.432-0.035 0.412-0.166 0.828-0.403 1.197-0.298 0.409-0.678 0.767-1.117 1.053-0.435 0.281-0.914 0.491-1.414 0.646-0.593 0.184-1.204 0.303-1.83 0.382-0.539 0.068-1.078 0.106-1.598 0.134-0.302 0.016-0.597 0.005-0.88-0.014-0.343-0.023-0.682-0.059-1.013-0.107-0.321-0.046-0.638-0.102-0.951-0.177-0.226-0.052-0.467-0.115-0.706-0.238-0.324-0.162-0.62-0.377-0.863-0.642-0.147-0.16-0.272-0.34-0.367-0.536-0.106-0.221-0.168-0.456-0.187-0.693-0.022-0.29 0.017-0.571 0.093-0.828 0.103-0.351 0.266-0.666 0.444-0.943 0.643-0.998 1.564-1.749 2.221-2.249 0.398-0.364 0.657-0.756 0.82-1.111 0.359-0.776 0.287-1.268 0.376-1.266z"></path>
		<path d="M20.079 10.19c0.056-0.042 0.32 0.049 0.471 0.46 0.070 0.198 0.093 0.441 0.040 0.697-0.023 0.106-0.055 0.212-0.096 0.317-0.163 0.415-0.43 0.72-0.638 0.896-0.212 0.18-0.38 0.248-0.438 0.197-0.062-0.054-0.007-0.222 0.112-0.457 0.104-0.207 0.311-0.555 0.424-0.847 0.032-0.081 0.058-0.16 0.079-0.238 0.049-0.173 0.069-0.325 0.064-0.463-0.004-0.288-0.104-0.495-0.017-0.561z"></path>
		<path d="M20.987 10.364c0.139-0.069 0.515 0.322 0.625 0.996 0.11 0.676-0.126 1.165-0.281 1.141-0.081-0.012-0.131-0.144-0.172-0.332-0.037-0.169-0.082-0.461-0.123-0.715-0.088-0.537-0.189-1.020-0.048-1.090z"></path>
		<path d="M21.66 10.097c0.067-0.046 0.206 0.029 0.377 0.184 0.189 0.172 0.35 0.369 0.58 0.616 0.045 0.049 0.089 0.095 0.132 0.139 0.118 0.121 0.217 0.212 0.321 0.29 0.213 0.165 0.409 0.252 0.394 0.358-0.011 0.082-0.237 0.184-0.602 0.070-0.172-0.056-0.348-0.156-0.51-0.3-0.056-0.050-0.111-0.104-0.164-0.162-0.249-0.27-0.41-0.565-0.493-0.777-0.085-0.217-0.1-0.374-0.035-0.419z"></path>
	</symbol>

	<symbol id="lantern" viewBox="0 0 27 32">
		<title>Chinese red lantern - another popular decorative art piece during the New Year celebrations. Nowadays people don't usually make them by hand anymore; but you could see manufactured lanterns hanging in many places. </title>
		<path d="M13.703 0c-1.296 0-2.346 0.979-2.346 2.186s1.051 2.186 2.346 2.186c0 0 0 0 0 0 1.296 0 2.347-0.979 2.347-2.186s-1.051-2.186-2.347-2.186c-0 0-0 0-0 0zM13.704 0.649c0 0 0 0 0 0 0.846 0 1.532 0.522 1.532 1.166 0 0 0 0 0 0s0 0 0 0c0 0.644-0.686 1.166-1.532 1.166 0 0 0 0-0 0s0 0-0 0c-0.846 0-1.532-0.522-1.532-1.166 0-0 0-0 0-0s0-0 0-0c0-0.644 0.686-1.166 1.532-1.166 0 0 0 0 0 0z"></path>
		<path d="M10.267 2.306c-0.522 0-0.942 0.42-0.942 0.942v1.433c-5.462 1.399-9.317 5.186-9.325 9.643 0.006 4.46 3.862 8.248 9.229 9.626l0.096 1.492c0 0.522 0.42 0.942 0.942 0.942h6.874c0.522 0 0.942-0.42 0.942-0.942v-1.474c5.462-1.399 9.317-5.186 9.325-9.643-0.006-4.46-3.862-8.248-9.229-9.626l-0.096-1.452c0-0.522-0.42-0.942-0.942-0.942h-6.874zM9.8 4.856c0.010 0.001 0.017 0.004 0.021 0.009 0.092 0.101-0.479 0.728-1.404 1.807-0.865 1.011-2.252 2.661-3.132 4.611-0.337 0.744-0.612 1.565-0.714 2.419-0.023 0.193-0.038 0.388-0.044 0.585-0.015 0.524 0.036 1.038 0.145 1.528 0.154 0.698 0.429 1.358 0.75 1.956 0.372 0.693 0.826 1.33 1.26 1.887 0.789 1.012 1.931 2.239 2.38 2.748 0.587 0.666 0.896 1.073 0.829 1.143-0.063 0.067-0.494-0.208-1.191-0.762-0.639-0.509-1.726-1.432-2.718-2.543-0.496-0.555-1.013-1.212-1.457-1.967-0.384-0.653-0.714-1.398-0.91-2.218-0.137-0.578-0.202-1.185-0.184-1.803 0.006-0.232 0.024-0.462 0.053-0.69 0.129-1.001 0.454-1.924 0.853-2.733 1.049-2.115 2.581-3.696 3.606-4.623 1.009-0.912 1.711-1.368 1.855-1.355zM11.313 4.974c0.008-0 0.015 0.001 0.020 0.005 0.277 0.178-1.123 2.094-1.903 5.314-0.285 1.171-0.461 2.485-0.433 3.89 0.004 0.227 0.014 0.453 0.029 0.676 0.103 1.579 0.457 3.059 0.83 4.294 0.786 2.594 1.622 4.23 1.393 4.347-0.117 0.060-1.262-1.412-2.271-4.046-0.483-1.26-0.916-2.808-1.044-4.518-0.018-0.241-0.029-0.485-0.034-0.731-0.030-1.521 0.197-2.934 0.567-4.173 0.497-1.66 1.226-2.983 1.784-3.825 0.534-0.805 0.942-1.229 1.062-1.233zM13.784 5.015c0.315 0.006 0.44 4.175 0.391 9.299-0.003 0.263-0.006 0.524-0.009 0.782-0.028 2.225-0.094 4.657-0.154 6.031-0.066 1.529-0.15 2.469-0.295 2.475-0.142 0.006-0.319-0.925-0.448-2.46-0.134-1.589-0.202-3.615-0.195-6.055 0.001-0.259 0.002-0.52 0.005-0.784 0.049-5.138 0.415-9.295 0.705-9.289zM17.503 5.036c0.128-0.022 0.733 0.342 1.614 1.094 0.903 0.77 2.229 2.074 3.277 3.838 0.701 1.179 1.274 2.644 1.379 4.261 0.017 0.266 0.022 0.531 0.013 0.794-0.078 1.847-0.793 3.468-1.609 4.689-0.954 1.429-2.076 2.472-2.831 3.082-0.786 0.635-1.3 0.911-1.36 0.839-0.071-0.084 0.318-0.508 0.973-1.246 0.616-0.692 1.617-1.826 2.409-3.182 0.678-1.162 1.281-2.639 1.324-4.221 0.008-0.227 0.005-0.456-0.009-0.686-0.088-1.397-0.581-2.726-1.171-3.833-0.885-1.657-2.076-3.040-2.828-3.896-0.796-0.907-1.281-1.431-1.2-1.524 0.004-0.005 0.011-0.008 0.019-0.009zM15.675 5.153c0.121-0.004 0.57 0.399 1.178 1.18 0.633 0.813 1.49 2.113 2.122 3.767 0.456 1.197 0.782 2.591 0.822 4.098 0.007 0.262 0.005 0.523-0.006 0.78-0.074 1.716-0.521 3.259-1.059 4.507-1.156 2.678-2.56 3.999-2.652 3.936-0.228-0.155 0.875-1.679 1.785-4.276 0.422-1.205 0.783-2.651 0.834-4.209 0.008-0.234 0.009-0.471 0.003-0.71-0.036-1.372-0.305-2.662-0.672-3.794-0.503-1.556-1.214-2.899-1.683-3.769-0.488-0.904-0.787-1.433-0.692-1.505 0.005-0.004 0.012-0.006 0.020-0.006z"></path>
		<path d="M10.992 26.146h0.866v5.807h-0.866v-5.807z"></path>
		<path d="M10.115 26.199h0.815v5.753h-0.815v-5.753z"></path>
		<path d="M12.704 26.295h0.911v5.609h-0.911v-5.609z"></path>
		<path d="M13.663 26.199h0.911v5.705h-0.911v-5.705z"></path>
		<path d="M15.437 26.343h0.911v5.609h-0.911v-5.609z"></path>
		<path d="M16.443 26.151h0.863v5.801h-0.863v-5.801z"></path>
	</symbol>

	<symbol id="redpocket" viewBox="0 0 25 32">
		<title>Red Pocket - Chinese children's favorite. The Red Pocket is a red envelop containing money, given to children in the family by the elders. Today, we also have the digital (mobile) version of red pocket in popular social media applications like WeChat. </title>
		<path d="M1.067 0c-0.591 0-1.067 0.476-1.067 1.067v29.867c0 0.591 0.476 1.067 1.067 1.067h22.857c0.591 0 1.067-0.476 1.067-1.067v-29.867c0-0.591-0.476-1.067-1.067-1.067h-22.857zM0.238 9.030c0.601 0.052 4.204 1.646 8.86 3.872 0.551-1.364 1.863-2.31 3.397-2.312 1.538 0 2.854 0.95 3.394 2.294 4.489-2.060 7.943-3.549 8.726-3.7 0.055-0.035 0.097-0.050 0.114-0.035s0.007 0.058-0.037 0.137c-0.542 0.473-3.932 2.207-8.583 4.424 0.026 0.161 0.042 0.347 0.043 0.536-0 2.021-1.637 3.658-3.657 3.658-0 0-0 0-0 0s-0 0-0 0c-2.020 0-3.657-1.637-3.657-3.657 0.002-0.19 0.018-0.374 0.046-0.554-5.151-2.481-8.839-4.426-8.733-4.645 0.008-0.017 0.037-0.023 0.086-0.018z"></path>
		<path d="M11.048 12.419c0.171-0.217 0.634-0.136 1.034 0.179s0.585 0.747 0.414 0.964c-0.171 0.217-0.634 0.136-1.034-0.179s-0.585-0.747-0.414-0.964z"></path>
		<path d="M13.943 12.19c0.19 0.2 0.019 0.67-0.38 1.049s-0.878 0.523-1.068 0.323c-0.19-0.2-0.019-0.67 0.38-1.049s0.878-0.523 1.068-0.323z"></path>
		<path d="M11.124 13.79c0-0.276 0.631-0.5 1.41-0.5s1.41 0.224 1.41 0.5c0 0.276-0.631 0.5-1.41 0.5s-1.41-0.224-1.41-0.5z"></path>
		<path d="M10.971 14.933c0-0.276 0.683-0.5 1.524-0.5s1.524 0.224 1.524 0.5c0 0.276-0.683 0.5-1.524 0.5s-1.524-0.224-1.524-0.5z"></path>
		<path d="M12.457 13.79c0.276-0.007 0.517 0.635 0.538 1.434s-0.186 1.454-0.462 1.461c-0.276 0.007-0.517-0.635-0.538-1.434s0.186-1.454 0.462-1.461z"></path>
	</symbol>

</svg>
